<?xml version="1.0" encoding="UTF-8"?>
<svg id="Layer_2" data-name="Layer 2" xmlns="http://www.w3.org/2000/svg" xmlns:xlink="http://www.w3.org/1999/xlink" viewBox="0 0 2499.98 650.41">
  <defs>
    <style>
      .cls-1 {
        fill: none;
      }

      .cls-1, .cls-2, .cls-3 {
        stroke-width: 0px;
      }

      .cls-4 {
        clip-path: url(#clippath);
      }

      .cls-2 {
        fill: #7eadc1;
      }

      .cls-3 {
        fill: #3e7287;
      }
    </style>
    <clipPath id="clippath">
      <circle class="cls-1" cx="296" cy="296" r="296"/>
    </clipPath>
  </defs>
  <g id="Layer_1-2" data-name="Layer 1">
    <g>
      <g class="cls-4">
        <g>
          <path class="cls-2" d="M474.88,205.63c-.26-2.06-3.29-8.35-4.24-11.13-5.21-15.34-15.42-26.84-30.21-33.92-8.52-4.08-12.61-2.94-13.25-3.18-3.03,6.48-10.01,11.09-13.78,16.96-.12.19-2.38.89-3.18,3.18-20.36-.5-4.57-5.99,9.54-23.32-7.1-2.31-14.22-4.77-21.2-7.42-1.48,3.15-8.88,7.01-11.66,9.54h-92.75c9.61,8.3,19.46,35.28,27.03,39.22,12.11,6.31,26.82-1.25,31.8-13.25,1.53-3.68,1.88-13.77,2.65-14.31,1.41-.99,14.61,1.52,20.67-1.06-1.54,7.14,1.46,39.51,0,42.93-.76,1.78-32.64,10.04-37.1,11.13-5.34,5.77,16.38.09,32.86-1.06q-1.06,3.18-2.12,6.36c26.62-2.04,52.15,1.09,78.44,5.3,9.67,1.55,16.42-.28,14.84,4.24-4.44,33.33,15.26-1.56,11.66-30.21Z"/>
          <g>
            <path class="cls-3" d="M389.02,818.32c5.02-10.55,15.09-24.55,19.08-34.98,7.63-19.94,3.76-38.83,9.54-6.36,32.51-66.51,43.28-133.94,45.58-207.23,1.15-36.78,4.13-145.83-34.45-165.36-25.22-12.77-36.94-3.86-40.81,22.26-6.4-23.02-14.38-45.55-22.79-67.84q-1.33.53-2.65,1.06c-5.3-34.96-30.77-86.4,2.12-114.48,4.11-1.01,10.05-5.95,20.14-8.48,19.98-5.01,43.44-.35,63.6-5.3-26.3-4.21-51.82-7.34-78.44-5.3q1.06-3.18,2.12-6.36c-16.48,1.15-38.2,6.83-32.86,1.06,4.46-1.09,36.34-9.35,37.1-11.13,1.46-3.42-1.54-35.79,0-42.93-6.06,2.58-19.26.07-20.67,1.06-.77.54-1.12,10.63-2.65,14.31-4.98,12-19.69,19.57-31.8,13.25-7.57-3.94-17.42-30.92-27.03-39.22h92.75c2.78-2.53,10.18-6.39,11.66-9.54,6.79-14.45-50.58-23.57-60.95-24.38-30.33-2.36-51.89.08-80.03,10.6-17.24,6.45-34.36,15.67-51.94,21.73,34.6.82,10.74,2.56-7.42,34.98-7.67,13.69-16.99,38.4-5.3,23.85-.13.29.13.76,0,1.06-.33.75,1.58,1.37,1.06,2.65-.31.77-5.52,8.03-7.42,14.84-8.21,29.41-11.69,77.53-12.72,108.65-1.23-.3-2.74.56-3.18,1.59-3.62,8.48-16.8,68.13-19.08,71.02-1.2,1.53-1.96-.26-3.18-.53,1.25-20.18-27.23-15.7-39.75-8.48-33.9,19.55-40.91,128.36-41.87,164.3-3.11,115.91,16.46,204.53,53,313.24h3.18c7.77-12.77,16.88-24.98,20.67-39.75q1.06,7.95,2.12,15.9c19.9-23.1,3.41,5.76,5.3,36.04,11.12-10.59,16.18-21.96,18.55-37.1,9.7,9.47,26.69,12.51,29.68,18.02-.55,2.91.28,8.65,0,12.72-.24,3.5.3,7.11,0,10.6-.12,1.42.18,2.18,0,4.24-4.66,53.45-3.87,31.4-39.75,57.24-43.97-9.62-49.74,35.6-27.56,40.28,6.48,1.37,126.17,1.95,132.5,0,2.05-.63,1.66-2.92.53-4.24,2.68.92,5.07.61,7.42-1.06.08.35,4.16,4.27,4.77,5.3,26.3-1.64,116.36,2.19,128.26,0,18.17-3.34,23.51-32.45-11.66-41.34-3.16-.8-10.65.8-13.78,0-.59-.15-7.28-6.44-9.54-7.42-26.5-11.45-31.82-6.76-31.27-41.87,13.25-8.23-.58-10.54-2.12-19.61-.43-2.57.27-11.3,1.06-13.78.91-2.87,12.51-17.89,15.37-20.14,10.14-7.97,17.55-.91,27.03-32.33,2.65-8.77,2.84-26.25,7.42-27.03.31,7.16-1.1,14.73,1.06,21.73ZM310,872.22c-.4-.58-.79-1.12-1.17-1.62.38.5.77,1.04,1.17,1.62ZM307.25,868.73c-.32-.33-.63-.6-.9-.79.28.19.58.46.9.79ZM218.35,880.34s-.04,0-.07,0c.02,0,.04,0,.07,0ZM307.4,929.62c-6.64,19.81-29.26,10.73-33.92,35.51q-10.07,4.24-20.14,8.48c-.95-4.19,1.06-9.71-3.18-17.49-6.83-12.54-18.55-5.97-23.32-47.7-.76-6.63,2.23-14.85,2.12-15.9-.09-.91-5.34-8.07-5.3-11.13,0-.81,5.37-12.65,6.36-14.84,5.68-12.52,14.62-22.7,22.26-33.92.62,21.31,4.49,2.43,16.96-18.55q1.86-6.1,3.71-12.19c2.84.47-4.04,40.03,5.83,14.84,6.68,13.98,15.2,21.07,15.9,22.26,7.91,13.34,6.97,14.9,10.6,28.62.2-.05.42-.02.67.1-.25-.12-.48-.15-.67-.1,1.71,6.45.53,11.03,1.06,13.25.61,2.52,6.29,7.95,6.36,8.48.31,2.31-6.1,8.97-6.36,10.6-.78,4.83,6.05,14.78,1.06,29.68ZM324.41,890.11s.01,0,.02,0c0,0-.01,0-.02,0Z"/>
            <path class="cls-3" d="M410.22,177.54c.8-2.3,3.06-2.99,3.18-3.18,3.77-5.87,10.75-10.48,13.78-16.96-.38-.14-.98-1.09-7.42-3.18-14.11,17.33-29.9,22.82-9.54,23.32Z"/>
            <path class="cls-3" d="M345.03,170.12c-6.68,14.83-18.87,11.33-26.5-1.06-6.77,23.66,31.37,28.84,26.5,1.06Z"/>
            <path class="cls-3" d="M324.89,159.52l-3.71,2.65c.55,12.41,15.86,2.08,3.71-2.65Z"/>
          </g>
        </g>
      </g>
      <g>
        <path class="cls-3" d="M609.64,347.63l53.07-4.52,2.47,44.84c11.93-20.57,36.2-46.49,70.76-46.9,30.85-.41,46.9,15.22,53.07,38.26,13.16-18.92,39.08-38.26,66.65-38.26,49.37,0,61.71,29.62,61.71,67.88v123.83l35.38,2.06v11.52h-89.68v-11.52l37.03-2.06v-123.83c0-29.21-10.7-52.25-47.72-52.25-24.27,0-48.13,18.92-60.06,36.61v139.46l37.03,2.06v11.52h-90.92v-11.52l36.61-2.06v-120.13c0-29.62-8.64-55.54-44.43-55.13-28.8,0-51.01,23.45-63.35,45.25v130l38.26,2.06v11.52h-94.21v-10.7l38.67-2.06v-112.31l-1.65-58.83-38.67-2.88v-11.93Z"/>
        <path class="cls-3" d="M1032.96,532.75l42.37,2.47v11.11h-98.32v-10.7l38.67-2.06v-171.96l-38.67-2.88v-11.11l55.95-3.29v188.42ZM1019.8,239.43c8.23,0,15.63,6.99,15.63,16.04s-7.4,16.04-15.63,16.04c-9.05,0-16.46-6.99-16.46-16.04s7.4-16.04,16.46-16.04Z"/>
        <path class="cls-3" d="M1150.21,532.75l41.14,2.47v11.11h-97.09v-10.7l38.26-2.06V254.24l-38.67-2.88v-11.52l56.36-3.7v296.61Z"/>
        <path class="cls-3" d="M1279.39,357.5l-35.79,1.65,59.24,165.38h.82l54.72-165.79-35.38-1.23v-11.52h80.22v10.7l-27.15,2.47-67.88,195.41h-11.93l-72.82-195.41-26.33-2.06v-11.11h82.28v11.52Z"/>
        <path class="cls-3" d="M1560.37,420.44v88.45c0,18.51,6.17,25.92,18.1,25.92,5.76,0,12.75-1.23,20.98-3.29v13.99c-9.87,4.11-19.34,5.35-26.33,5.35-19.75,0-29.62-12.75-30.03-36.61-12.34,16.04-34.97,37.02-69.11,37.02s-55.13-20.57-54.71-50.19c.41-44.84,44.84-67.88,123.01-68.29v-12.75c0-35.38-5.76-63.35-47.31-63.35-20.57,0-41.14,6.17-58.42,15.22l-4.53-13.16c8.64-3.7,34.56-17.69,67.88-17.69,50.19,0,60.47,32.91,60.47,79.4ZM1542.27,445.95c-71.58.41-104.91,20.98-104.91,53.89,0,21.8,16.04,36.61,39.49,36.61,32.91,0,57.18-24.68,65.41-39.08v-51.42Z"/>
        <path class="cls-3" d="M1616.73,599.4c0-32.5,31.27-47.72,51.01-54.72-18.51-4.11-36.61-13.99-36.61-35.79,0-20.57,16.04-34.15,27.56-41.14-15.63-11.93-25.92-30.44-25.92-54.72,0-41.96,32.5-71.58,74.05-71.58,23.04,0,43.61,9.46,57.18,25.1,15.63-13.58,36.2-22.22,58.83-22.22v16.04c-16.87,0-36.2,5.76-51.42,16.87,6.17,10.28,9.46,22.63,9.46,35.79,0,43.61-33.73,69.94-74.05,69.94-13.58,0-25.92-2.88-36.61-8.23-9.46,4.94-21.39,14.81-21.39,29.62,0,22.21,27.15,26.74,61.3,27.97,63.77,2.06,99.97,16.04,99.97,55.54,0,50.19-58.42,62.53-98.73,62.53s-94.62-11.52-94.62-51.01ZM1691.19,547.56c-14.81,1.23-56.77,14.81-56.77,48.96,0,31.68,45.67,39.9,79.4,39.9s78.16-9.46,78.16-45.66c0-28.8-28.8-41.96-100.79-43.2ZM1651.28,412.22c0,36.2,25.92,56.77,55.54,56.77s55.54-20.57,55.54-56.77c0-33.73-24.27-56.77-55.54-56.77s-55.54,23.04-55.54,56.77Z"/>
        <path class="cls-3" d="M2023.18,445.95c0,65.41-39.08,104.91-91.74,104.91s-92.15-39.49-92.15-104.91,39.08-104.9,92.15-104.9,91.74,39.49,91.74,104.9ZM1858.21,445.95c0,54.3,28.8,90.1,73.23,90.1s73.23-35.79,73.23-90.1-29.62-90.09-73.23-90.09-73.23,35.79-73.23,90.09Z"/>
        <path class="cls-3" d="M2136.31,278.92v-10.7h102.85v10.7l-42.37,2.06v251.77l42.37,2.47v11.11h-102.85v-10.7l41.96-2.06v-252.6l-41.96-2.06Z"/>
        <path class="cls-3" d="M2486.41,340.22l-4.53-57.59h-87.63v250.13l50.6,2.47v11.11h-119.71v-10.7l50.6-2.06v-250.95h-90.1l-.41,58.01-12.75,2.06-1.23-1.23-1.65-71.99,1.23-1.23h226.68l2.47,70.76-12.34,2.06-1.23-.82Z"/>
      </g>
    </g>
  </g>
</svg>