<?xml version="1.0" encoding="UTF-8"?>
<svg id="Layer_2" data-name="Layer 2" xmlns="http://www.w3.org/2000/svg" xmlns:xlink="http://www.w3.org/1999/xlink" viewBox="0 0 1890.35 1410.1">
  <defs>
    <style>
      .cls-1 {
        fill: #565656;
      }

      .cls-1, .cls-2, .cls-3 {
        stroke-width: 0px;
      }

      .cls-2 {
        fill: #1c1c1b;
      }

      .cls-3 {
        fill: none;
      }

      .cls-4 {
        clip-path: url(#clippath);
      }
    </style>
    <clipPath id="clippath">
      <circle class="cls-3" cx="938.8" cy="506.26" r="506.26"/>
    </clipPath>
  </defs>
  <g id="Layer_1-2" data-name="Layer 1">
    <g>
      <g class="cls-4">
        <g>
          <path class="cls-1" d="M1244.75,351.7c-.44-3.52-5.64-14.28-7.25-19.04-8.91-26.24-26.37-45.91-51.67-58.02-14.57-6.97-21.57-5.04-22.66-5.44-5.19,11.08-17.12,18.96-23.57,29.01-.21.32-4.06,1.51-5.44,5.44-34.82-.85-7.82-10.24,16.32-39.89-12.14-3.95-24.32-8.15-36.26-12.69-2.53,5.39-15.19,11.99-19.94,16.32h-158.64c16.44,14.19,33.29,60.33,46.23,67.08,20.72,10.8,45.87-2.14,54.39-22.66,2.61-6.3,3.22-23.55,4.53-24.48,2.42-1.7,25,2.6,35.35-1.81-2.64,12.21,2.51,67.58,0,73.43-1.31,3.04-55.82,17.17-63.46,19.04-9.14,9.87,28.02.15,56.2-1.81q-1.81,5.44-3.63,10.88c45.54-3.5,89.19,1.86,134.16,9.07,16.55,2.65,28.09-.47,25.38,7.25-7.59,57.01,26.1-2.67,19.94-51.67Z"/>
          <g>
            <path class="cls-2" d="M1097.9,1399.63c8.59-18.04,25.8-41.98,32.63-59.83,13.06-34.1,6.43-66.42,16.32-10.88,55.6-113.75,74.03-229.08,77.96-354.44,1.97-62.91,7.06-249.42-58.92-282.83-43.14-21.85-63.19-6.61-69.8,38.07-10.94-39.36-24.6-77.9-38.98-116.03q-2.27.91-4.53,1.81c-9.07-59.79-52.63-147.77,3.63-195.81,7.03-1.73,17.19-10.18,34.45-14.5,34.18-8.57,74.3-.59,108.78-9.07-44.97-7.21-88.63-12.56-134.16-9.07q1.81-5.44,3.63-10.88c-28.18,1.96-65.34,11.69-56.2,1.81,7.63-1.86,62.15-15.99,63.46-19.04,2.51-5.84-2.64-61.22,0-73.43-10.36,4.41-32.94.11-35.35,1.81-1.31.92-1.92,18.18-4.53,24.48-8.52,20.52-33.67,33.46-54.39,22.66-12.94-6.75-29.8-52.89-46.23-67.08h158.64c4.76-4.32,17.41-10.92,19.94-16.32,11.61-24.72-86.51-40.32-104.25-41.7-51.88-4.04-88.76.14-136.88,18.13-29.48,11.02-58.77,26.8-88.84,37.17,59.19,1.4,18.37,4.38-12.69,59.83-13.11,23.41-29.06,65.68-9.06,40.79-.23.5.22,1.31,0,1.81-.56,1.28,2.7,2.34,1.81,4.53-.53,1.32-9.44,13.73-12.69,25.38-14.04,50.3-19.99,132.6-21.76,185.83-2.1-.51-4.68.95-5.44,2.72-6.2,14.5-28.74,116.53-32.63,121.47-2.06,2.61-3.34-.45-5.44-.91,2.14-34.51-46.58-26.85-67.99-14.5-57.98,33.44-69.96,219.55-71.61,281.02-5.32,198.25,28.16,349.81,90.65,535.75h5.44c13.29-21.84,28.86-42.72,35.35-67.99q1.81,13.6,3.63,27.2c34.04-39.51,5.83,9.84,9.07,61.64,19.02-18.12,27.68-37.56,31.73-63.46,16.6,16.2,45.64,21.39,50.76,30.82-.95,4.98.49,14.8,0,21.76h0c-.42,5.98.51,12.17,0,18.13-.21,2.43.31,3.73,0,7.25-7.98,91.42-6.62,53.71-67.99,97.9-75.21-16.46-85.08,60.89-47.14,68.89,11.09,2.34,215.8,3.34,226.63,0,3.51-1.08,2.84-4.99.91-7.25,4.58,1.58,8.67,1.04,12.69-1.81.14.59,7.11,7.3,8.16,9.06,44.98-2.81,199.02,3.75,219.38,0,31.07-5.72,40.22-55.51-19.94-70.71-5.4-1.36-18.22,1.37-23.57,0-1-.26-12.45-11.02-16.32-12.69-45.32-19.58-54.43-11.55-53.48-71.61,22.65-14.07-1-18.02-3.63-33.54h0c-.74-4.39.47-19.32,1.81-23.57,1.55-4.91,21.4-30.6,26.29-34.45,17.35-13.64,30.02-1.56,46.23-55.3,4.53-15.01,4.86-44.89,12.69-46.23.53,12.25-1.89,25.2,1.81,37.17ZM964.49,1494.41c-.12-.18-.24-.36-.36-.54.12.18.24.36.36.54ZM963.43,1492.82c-.11-.16-.22-.33-.33-.49.11.16.22.32.33.49ZM960.87,1489.21c-.2-.27-.4-.53-.6-.78-.31-.4-.62-.78-.92-1.14-.6-.71-1.17-1.33-1.7-1.84.53.51,1.1,1.13,1.7,1.84.3.36.61.74.92,1.14.2.25.4.52.6.78ZM957.61,1485.4c-.23-.21-.45-.41-.66-.58.21.17.43.36.66.58ZM955.68,1484.04c-.11-.04-.21-.08-.31-.1.1.02.21.06.31.1ZM795.77,1507.43c1.1-.3,2.22-.57,3.36-.81-1.14.24-2.26.52-3.36.81ZM958.3,1589.99c-11.35,33.89-50.05,18.36-58.02,60.74q-17.22,7.25-34.45,14.5c-1.62-7.17,1.81-16.61-5.44-29.91-11.69-21.45-31.73-10.21-39.89-81.59-1.29-11.34,3.81-25.4,3.63-27.2-.16-1.56-9.13-13.8-9.07-19.04h0c.02-1.38,9.18-21.64,10.88-25.38,9.72-21.42,25-38.82,38.07-58.02,1.05,36.45,7.68,4.16,29.01-31.73q3.17-10.42,6.35-20.85c4.86.81-6.9,68.47,9.97,25.38,11.42,23.9,25.99,36.04,27.2,38.07,13.53,22.81,11.92,25.48,18.13,48.95h0c2.92,11.03.9,18.86,1.81,22.66,1.04,4.31,10.76,13.61,10.88,14.5.53,3.95-10.43,15.35-10.88,18.13-1.34,8.27,10.35,25.27,1.81,50.76ZM988.19,1522.4s.02,0,.03,0c0,0-.02,0-.03,0ZM1004.3,1521.78h0,0Z"/>
            <path class="cls-2" d="M1134.16,303.66c1.38-3.93,5.23-5.12,5.44-5.44,6.45-10.05,18.38-17.93,23.57-29.01-.65-.24-1.68-1.86-12.69-5.44-24.13,29.64-51.14,39.03-16.32,39.89Z"/>
            <path class="cls-2" d="M1022.66,290.97c-11.42,25.37-32.28,19.38-45.33-1.81-11.58,40.47,53.66,49.33,45.33,1.81Z"/>
            <path class="cls-2" d="M988.21,272.84q-3.17,2.27-6.35,4.53c.95,21.22,27.13,3.56,6.35-4.53Z"/>
          </g>
        </g>
      </g>
      <g>
        <path class="cls-2" d="M0,1107.31l53.07-4.52,2.47,44.84c11.93-20.57,36.2-46.49,70.76-46.9,30.85-.41,46.9,15.22,53.07,38.26,13.16-18.92,39.08-38.26,66.65-38.26,49.37,0,61.71,29.62,61.71,67.88v123.83l35.38,2.06v11.52h-89.68v-11.52l37.03-2.06v-123.83c0-29.21-10.7-52.25-47.72-52.25-24.27,0-48.13,18.92-60.06,36.61v139.46l37.03,2.06v11.52h-90.92v-11.52l36.61-2.06v-120.13c0-29.62-8.64-55.54-44.43-55.13-28.8,0-51.01,23.45-63.35,45.25v130l38.26,2.06v11.52H1.65v-10.7l38.67-2.06v-112.31l-1.65-58.83-38.67-2.88v-11.93Z"/>
        <path class="cls-2" d="M423.32,1292.44l42.37,2.47v11.11h-98.32v-10.7l38.67-2.06v-171.96l-38.67-2.88v-11.11l55.95-3.29v188.42ZM410.16,999.12c8.23,0,15.63,6.99,15.63,16.04s-7.4,16.04-15.63,16.04c-9.05,0-16.46-6.99-16.46-16.04s7.4-16.04,16.46-16.04Z"/>
        <path class="cls-2" d="M540.57,1292.44l41.14,2.47v11.11h-97.09v-10.7l38.26-2.06v-279.34l-38.67-2.88v-11.52l56.36-3.7v296.61Z"/>
        <path class="cls-2" d="M669.75,1117.19l-35.79,1.65,59.24,165.38h.82l54.72-165.79-35.38-1.23v-11.52h80.22v10.7l-27.15,2.47-67.88,195.41h-11.93l-72.82-195.41-26.33-2.06v-11.11h82.28v11.52Z"/>
        <path class="cls-2" d="M950.73,1180.13v88.45c0,18.51,6.17,25.92,18.1,25.92,5.76,0,12.75-1.23,20.98-3.29v13.99c-9.87,4.11-19.34,5.35-26.33,5.35-19.75,0-29.62-12.75-30.03-36.61-12.34,16.04-34.97,37.02-69.11,37.02s-55.13-20.57-54.71-50.19c.41-44.84,44.84-67.88,123.01-68.29v-12.75c0-35.38-5.76-63.35-47.31-63.35-20.57,0-41.14,6.17-58.42,15.22l-4.53-13.16c8.64-3.7,34.56-17.69,67.88-17.69,50.19,0,60.47,32.91,60.47,79.4ZM932.63,1205.63c-71.58.41-104.91,20.98-104.91,53.89,0,21.8,16.04,36.61,39.49,36.61,32.91,0,57.18-24.68,65.41-39.08v-51.42Z"/>
        <path class="cls-2" d="M1007.09,1359.08c0-32.5,31.27-47.72,51.01-54.72-18.51-4.11-36.61-13.99-36.61-35.79,0-20.57,16.04-34.15,27.56-41.14-15.63-11.93-25.92-30.44-25.92-54.72,0-41.96,32.5-71.58,74.05-71.58,23.04,0,43.61,9.46,57.18,25.1,15.63-13.58,36.2-22.22,58.83-22.22v16.04c-16.87,0-36.2,5.76-51.42,16.87,6.17,10.28,9.46,22.63,9.46,35.79,0,43.61-33.73,69.94-74.05,69.94-13.58,0-25.92-2.88-36.61-8.23-9.46,4.94-21.39,14.81-21.39,29.62,0,22.21,27.15,26.74,61.3,27.97,63.77,2.06,99.97,16.04,99.97,55.54,0,50.19-58.42,62.53-98.73,62.53s-94.62-11.52-94.62-51.01ZM1081.55,1307.25c-14.81,1.23-56.77,14.81-56.77,48.96,0,31.68,45.67,39.9,79.4,39.9s78.16-9.46,78.16-45.66c0-28.8-28.8-41.96-100.79-43.2ZM1041.65,1171.9c0,36.2,25.92,56.77,55.54,56.77s55.54-20.57,55.54-56.77c0-33.73-24.27-56.77-55.54-56.77s-55.54,23.04-55.54,56.77Z"/>
        <path class="cls-2" d="M1413.55,1205.63c0,65.41-39.08,104.91-91.74,104.91s-92.15-39.49-92.15-104.91,39.08-104.9,92.15-104.9,91.74,39.49,91.74,104.9ZM1248.58,1205.63c0,54.3,28.8,90.1,73.23,90.1s73.23-35.79,73.23-90.1-29.62-90.09-73.23-90.09-73.23,35.79-73.23,90.09Z"/>
        <path class="cls-2" d="M1526.68,1038.61v-10.7h102.85v10.7l-42.37,2.06v251.77l42.37,2.47v11.11h-102.85v-10.7l41.96-2.06v-252.6l-41.96-2.06Z"/>
        <path class="cls-2" d="M1876.77,1099.91l-4.53-57.59h-87.63v250.13l50.6,2.47v11.11h-119.71v-10.7l50.6-2.06v-250.95h-90.1l-.41,58.01-12.75,2.06-1.23-1.23-1.65-71.99,1.23-1.23h226.68l2.47,70.76-12.34,2.06-1.23-.82Z"/>
      </g>
    </g>
  </g>
</svg>