<?xml version="1.0" encoding="UTF-8"?>
<svg id="Layer_2" data-name="Layer 2" xmlns="http://www.w3.org/2000/svg" viewBox="0 0 1319.79 788.85">
  <defs>
    <style>
      .cls-1 {
        fill: #232323;
        stroke-width: 0px;
      }
    </style>
  </defs>
  <g id="Layer_1-2" data-name="Layer 1">
    <g>
      <path class="cls-1" d="M792.11,324.04c4.22-16.23,8.44-32.46,12.64-48.69,20.73-80.1,41.4-160.21,62.2-240.3,5.28-20.32,9.83-23.66,30.66-23.67,11.69,0,23.38-.08,35.07.03,9.84.09,13,3.53,12.11,13.45-.34,3.84-1.2,7.7-2.35,11.39-35.54,113.97-71.13,227.93-106.74,341.87-6.21,19.88-10.52,22.94-31.56,22.94-10.95,0-21.9.07-32.85-.04-15.83-.16-21.56-4.75-25.27-20.18-8.66-35.99-17.24-72.01-25.9-108-13.64-56.69-27.32-113.37-41-170.05-.37-1.53-.9-3.02-1.83-6.1-7.21,30.1-14.03,58.51-20.84,86.92-15.53,64.8-30.99,129.62-46.64,194.4-4.65,19.26-9.16,22.64-28.89,22.68-12.99.03-25.97-.21-38.96-.35-9.51-.1-15.91-4.85-18.85-13.68-5.19-15.62-10.11-31.34-14.91-47.09-30.85-101.28-61.64-202.57-92.41-303.87-1.18-3.89-2.21-7.87-2.72-11.89-.99-7.74,2.77-12.27,10.49-12.34,15.96-.13,31.91.09,47.87.17,8.84.04,15.16,4.19,17.7,12.54,4.51,14.86,8.62,29.86,12.46,44.91,20.99,82.33,41.84,164.69,62.75,247.03.38,1.51.96,2.98,1.92,5.89,1.02-3.41,1.74-5.42,2.22-7.47,21.98-93.15,43.94-186.3,65.89-279.45,4.71-20,9.24-23.69,29.76-23.7,12.06,0,24.13-.08,36.18.29,11.46.36,16.88,4.38,19.93,15.75,4.37,16.26,8.02,32.72,11.9,49.11,19.26,81.43,38.5,162.86,57.75,244.29.24,1.03.58,2.05.87,3.07.44.04.87.09,1.31.13Z"/>
      <path class="cls-1" d="M658.25,788.85c-25.54-1.06-50.22-1.42-74.79-3.24-50.04-3.7-99.58-11.09-148.49-22.45-132.34-30.73-253.12-86.48-361.76-168.03-22.52-16.9-43.73-35.56-65.39-53.59-2.76-2.3-5.28-5.36-6.8-8.59-3.14-6.67,1.33-13.84,8.67-13.55,4.22.17,8.65,1.85,12.49,3.81,33,16.84,65.45,34.83,98.91,50.7,70.12,33.26,143.23,58.49,218.3,78.12,43.7,11.43,87.86,20.66,132.49,27.45,25.21,3.83,50.58,6.98,75.98,9.15,30.8,2.63,61.69,4.6,92.59,5.54,29.08.88,58.26,1.14,87.3-.31,32.5-1.62,64.98-4.69,97.31-8.5,120.01-14.12,235.63-45.11,347.09-91.69,5.95-2.49,11.9-4.01,18.32-1.89,13.53,4.46,17.7,18.93,7.61,28.97-5.98,5.95-13.23,10.72-20.23,15.55-64.76,44.64-135.44,77.13-209.96,101.62-53.89,17.71-108.85,31.13-165.05,38.97-27.09,3.78-54.34,6.59-81.6,8.89-21.22,1.79-42.55,2.12-62.99,3.06Z"/>
      <path class="cls-1" d="M304.29,352.06c-13.81,11.31-26.65,23.51-41.11,33.31-29.24,19.81-62.36,26.6-97.36,25.09-22.02-.95-43.06-5.67-61.84-17.61-31.1-19.76-46.61-48.94-49.53-85.06-2.17-26.78,1.36-52.67,15.93-75.94,19.28-30.82,48.04-48.13,82.77-56.39,28.36-6.74,57.07-6.51,85.72-2.72,19.77,2.61,39.38,6.44,59.79,9.84,0-8.26.41-16.73-.09-25.15-.84-14.02-1.3-28.17-3.67-41.97-5.15-29.96-24.22-46.26-53.62-51.62-35.15-6.4-69.43-2.36-103.13,8.38-10.05,3.2-19.9,7.03-29.85,10.52-5.06,1.78-10.08,3.74-15.26,5.1-7.53,1.97-12.48-1.11-12.83-8.69-.51-10.91-.31-21.88.04-32.8.25-7.99,5.76-12.47,12.22-15.97,17.05-9.24,35.29-15.33,53.98-20.21,43.26-11.29,86.87-13.31,130.48-3.06,53.34,12.53,83.94,46.91,91.01,101.36,1.71,13.19,2.43,26.59,2.53,39.9.31,43.77-.15,87.54.28,131.31.12,12.51.79,25.4,3.92,37.41,3.5,13.47,9.65,26.32,15.43,39.09,5.28,11.67,4.24,17.93-6.27,25.13-8.56,5.87-17.2,11.64-25.93,17.26-10.04,6.47-18.78,5.92-26.07-3.57-8.64-11.25-15.86-23.59-23.58-35.53-1.77-2.74-3.08-5.78-3.94-7.42ZM300.23,250.21c-.26-.03-.52-.06-.79-.09,0-3.89-.39-7.84.1-11.67.64-5.06-1.68-6.77-6.2-7.5-9.69-1.57-19.27-3.84-28.99-5.14-26.17-3.52-52.46-5.62-78.64-.47-26.73,5.26-46.79,18.84-52.98,47.06-1.84,8.38-2.04,17.32-1.67,25.95,1.24,29.45,19.35,50.08,47.29,53.84,26.5,3.57,51.94-1.03,75.32-13.75,22.2-12.08,38.47-29.67,42.81-55.72,1.79-10.75,2.53-21.67,3.75-32.51Z"/>
      <path class="cls-1" d="M1125.86.03c29.87.32,59.06,5.02,87.16,15.26,7.05,2.57,13.74,6.42,20.16,10.39,6.65,4.12,10.52,10.52,10.66,18.51.16,9.25.35,18.55-.45,27.75-.68,7.88-5.63,10.99-13.33,8.74-6.72-1.96-13.15-4.92-19.71-7.44-37.07-14.27-75.14-17.9-114.15-10.32-5.21,1.01-10.32,3.01-15.22,5.13-15.75,6.79-25.15,18.57-26.93,35.85-1.86,18.12,4.23,32.73,19.6,43.11,13.52,9.13,28.67,14.53,44,19.58,26.9,8.86,54.14,16.84,80.55,26.96,30.22,11.59,53.32,31.7,62.87,63.83,14.16,47.59-1.55,99.51-51.01,129.95-22.33,13.74-47.11,20.74-72.95,23.57-43.89,4.8-86.54-1.59-127.92-16.52-7.43-2.68-14.46-6.62-21.35-10.55-7.72-4.4-11.15-11.72-11.38-20.42-.22-8.15-.27-16.33.02-24.47.37-10.44,5.81-14.45,15.89-11.47,6.55,1.94,12.85,4.73,19.2,7.29,38.96,15.7,79.36,21.16,121.02,16.29,15.6-1.83,30.33-6.62,43.05-16.55,22.87-17.85,25.46-59.09-4.6-76.71-15.19-8.9-31.84-13.88-48.41-19.23-23.6-7.61-47.55-14.4-70.58-23.49-34.16-13.48-58.27-37.82-67.53-73.89-11.13-43.38,1.98-79.78,36.39-108.21,24.88-20.55,54.3-29.72,86.06-32.28,3.14-.25,6.29-.53,9.44-.64,3.15-.11,6.3-.02,9.46-.02Z"/>
      <path class="cls-1" d="M1319.78,536.94c-1.23,36.71-10.44,71.57-24.76,105.17-12.83,30.1-29.71,57.61-53.61,80.37-3.62,3.44-7.4,6.78-11.47,9.65-3.55,2.5-8.02,4.27-11.88,1.19-4.01-3.19-2.5-7.77-.98-11.8,7.58-20.08,15.56-40.02,22.8-60.22,8.3-23.16,15.7-46.64,18.89-71.13.95-7.29.94-14.83.29-22.17-.75-8.57-5.57-15.35-13.89-17.8-10.22-3.01-20.81-6.4-31.29-6.56-24.95-.4-49.96.49-74.89,1.85-17.7.97-35.31,3.58-52.96,5.41-1.83.19-3.73.24-5.56,0-5.47-.71-8.32-5.3-5.5-9.97,2.22-3.67,5.44-7.11,8.98-9.53,25.33-17.34,53.72-27.09,83.63-32.96,25.4-4.98,51.08-6.54,76.85-5.34,18.28.85,36.51,2.98,54.09,8.64,16.97,5.46,21.1,11.1,21.24,29.09.02,2.04,0,4.08,0,6.12Z"/>
    </g>
  </g>
</svg>