<?xml version="1.0" encoding="UTF-8"?>
<svg id="Layer_2" data-name="Layer 2" xmlns="http://www.w3.org/2000/svg" viewBox="0 0 2769.89 797.18">
  <defs>
    <style>
      .cls-1 {
        fill: #232323;
        stroke-width: 0px;
      }
    </style>
  </defs>
  <g id="Layer_1-2" data-name="Layer 1">
    <g>
      <path class="cls-1" d="M2769.89,558.53c-74.09.04-148.18.11-222.27.04-4.18,0-5.56,1.02-5.48,5.38.43,24.94,7.15,47.93,21.15,68.61,16.79,24.79,41.2,37.53,70.22,40.34,42.05,4.07,80.72-6.33,115.14-31.32,1.4-1.01,2.53-2.57,5.65-2.76,0,6.16,0,12.19,0,18.21,0,4.86.03,9.72.03,14.59q0,16.45-14.77,24.3c-27.33,14.45-56.26,22.41-87.38,22.96-19.9.35-39.67.7-58.93-5.05-48.68-14.53-80.82-46.56-95.37-94.68-15.99-52.86-15.75-105.82,7-157.19,20.48-46.26,54.5-77.8,104.68-88.44,47.23-10.02,90.74-1.62,126.52,33.36,15.24,14.9,25,33.26,31.6,53.38.6,1.82.58,3.92,2.22,5.32v92.95ZM2631.87,513.29c28.47,0,56.93-.08,85.4.09,3.96.02,5.3-.88,5.17-5.04-.22-7.22-.86-14.38-2.41-21.4-4.21-19.09-11.23-36.94-25.87-50.6-16.46-15.36-36.38-20.72-58.67-19.69-21.63,1.01-40.33,8.34-56.05,23.16-19.82,18.69-31.22,41.81-36.08,68.45-.78,4.29-.01,5.14,4.19,5.12,28.11-.16,56.21-.09,84.32-.09Z"/>
      <path class="cls-1" d="M1032.79,797.18H241.45c-.02-.16-.03-.32-.05-.49,29.38-5.18,58.76-10.35,88.14-15.54,52.28-9.24,104.55-18.51,156.83-27.73,58.13-10.25,116.27-20.46,174.41-30.7,18.97-3.34,37.93-6.69,56.88-10.11,6.03-1.09,6.04-1.21,1.97-6.05-25.64-30.46-51.34-60.87-76.95-91.36-55.5-66.08-110.94-132.21-166.51-198.23-2.47-2.93-2.65-5.33-1.41-8.74,42.4-116.42,84.72-232.86,127.06-349.3.31-.84.72-1.64,1.73-3.91,143.26,247.69,286.02,494.51,429.25,742.16Z"/>
      <path class="cls-1" d="M567.28,1.26c-6.37,16.25-14.36,31.77-21.73,47.57-98.21,210.44-196.47,420.85-294.72,631.27-4.03,8.64-8.1,17.26-12.02,25.95-1.16,2.57-2.54,3.8-5.63,3.8-76.81-.11-153.62-.11-230.43-.13-.65,0-1.31-.12-2.75-.25,6.01-10.46,11.69-20.41,17.42-30.33,80.91-140.11,161.84-280.22,242.72-420.35,1.47-2.55,3.29-4.62,5.54-6.5,95.34-79.77,190.66-159.56,286-239.34,4.96-4.15,10.05-8.15,15.08-12.22.17.18.35.37.53.55Z"/>
      <path class="cls-1" d="M1511.87,711.05c-8.11,0-16.24-.26-24.33.11-4.17.19-5.94-1.32-7.34-5.1-14.86-39.93-29.97-79.77-44.8-119.72-1.5-4.03-3.35-5.3-7.69-5.29-61.84.17-123.67.17-185.51,0-4.59-.01-6.47,1.45-7.96,5.69-13.95,39.68-28.18,79.27-42.19,118.93-1.37,3.88-2.98,5.63-7.55,5.52-16.58-.4-33.17-.33-49.75-.17-4.41.04-5.03-.87-3.43-5.06,34.55-90.34,68.94-180.75,103.39-271.13,23.31-61.15,46.71-122.26,69.91-183.45,1.43-3.76,3.05-5.3,7.24-5.23,15.5.27,31.01.25,46.51,0,3.92-.06,5.64,1.26,7.02,4.84,41.05,106.72,82.21,213.4,123.36,320.09,17.21,44.62,34.43,89.24,51.64,133.86,2.3,5.95,2.31,5.99-4.17,6.02-8.11.04-16.23.01-24.34.01v.08ZM1334.19,302.72c-.49,2.29-.94,4.01-1.22,5.75-1.36,8.36-3.22,16.58-6.13,24.55-23.36,64-46.74,128-70.11,192-2.32,6.34-2.3,6.4,4.28,6.4,49.94.04,99.87.07,149.81.06,1.31,0,2.82.56,4.19-.87-9.89-26.76-20.07-53.45-29.62-80.36-17.28-48.75-38.08-96.29-51.2-147.53Z"/>
      <path class="cls-1" d="M2117.97,660.09c-5.04,8.72-10.54,17.1-17.48,24.43-18.98,20.04-42.04,31.6-69.65,34.14-22.77,2.09-45.06.11-66.39-8.27-32.91-12.94-50.96-38.72-60.05-71.66-4.27-15.48-6.44-31.31-6.74-47.42-1.27-68.98-.59-137.96-1.06-206.94-.03-4.45,1.39-5.32,5.47-5.26,14.42.23,28.85.29,43.27-.03,4.52-.1,5.28,1.5,5.28,5.54,0,62.14.23,124.28.19,186.42-.01,19.23,1.97,38.05,8.63,56.22,10.06,27.46,32.84,43.71,60.72,46.34,57.04,5.39,86.05-33.31,96.08-72.25,1.62-6.31,2.42-12.63,2.41-19.18-.03-65.02.16-130.04.05-195.06,0-5.43,1.28-7.05,6.85-6.89,14.41.43,28.85.25,43.27.07,3.58-.04,5,.66,5,4.66-.11,107.17-.1,214.34-.03,321.5,0,3.32-.62,4.74-4.38,4.68-15.14-.21-30.29-.2-45.44,0-3.66.05-4.5-1.19-4.46-4.61.15-13.15.01-26.3-.01-39.44,0-2.12,0-4.23,0-6.35-.51-.21-1.02-.42-1.53-.64Z"/>
      <path class="cls-1" d="M1640.03,665.69h52.91c45.08,0,90.16.06,135.24-.1,4.38-.02,5.91.95,5.77,5.59-.34,11.52-.31,23.06-.01,34.58.11,4.29-1.16,5.39-5.4,5.38-50.31-.14-100.62-.09-150.93-.09-36.79,0-73.57-.08-110.36.1-4.76.02-6.3-.99-6.42-6.1-.18-7.56,1.81-13.58,6.35-19.78,62.24-85.01,124.22-170.2,186.23-255.38.99-1.36,3.18-2.75,2.12-4.49-.96-1.57-3.33-.64-5.05-.64-55-.15-109.99-.32-164.99-.27-4.59,0-6.24-.87-6.09-5.84.35-11.51.13-23.05-.13-34.58-.08-3.61.77-4.98,4.72-4.98,82.59.11,165.17.11,247.76,0,3.7,0,4.21,1.3,4.49,4.63.62,7.4-1.71,13.25-6.1,19.29-62.39,85.79-124.53,171.76-186.73,257.69-.93,1.29-1.79,2.63-3.38,4.98Z"/>
      <path class="cls-1" d="M2334.6,444.63c4.85-9.09,8.52-18.45,14.01-26.93,13.98-21.58,31.63-38.32,57.91-43.43,14.54-2.82,29.01-1.74,43.4,1.49,3.19.71,4.34,2.14,4.3,5.5-.18,15.31-.27,30.62.02,45.92.11,5.51-1.63,4.67-5.34,2.9-24.25-11.6-48.08-10.77-71.09,3.32-11.38,6.97-19.17,17.32-25.18,29.04-11.49,22.41-18.11,45.9-18.04,71.41.16,57.08-.44,114.17-.55,171.25,0,4.54-.81,6.22-5.82,6.07-14.05-.42-28.12-.38-42.18-.15-4.3.07-5.35-1.25-5.35-5.44.04-107.15-.05-214.31-.2-321.46,0-3.53.63-5.09,4.66-5.02,14.78.23,29.57.2,44.35.01,3.6-.05,4.54,1.09,4.52,4.59-.11,18.55,0,37.1.09,55.65,0,1.76.31,3.52.48,5.29Z"/>
      <path class="cls-1" d="M566.75.71c.22-.25.61-.74.64-.71.65.46.33.87-.12,1.26-.18-.18-.35-.36-.53-.54Z"/>
    </g>
  </g>
</svg>