<?xml version="1.0" encoding="UTF-8"?>
<svg id="Layer_2" data-name="Layer 2" xmlns="http://www.w3.org/2000/svg" viewBox="0 0 1581.67 1600">
  <defs>
    <style>
      .cls-1 {
        fill: #232323;
        stroke-width: 0px;
      }
    </style>
  </defs>
  <g id="Layer_1-2" data-name="Layer 1">
    <g>
      <g>
        <path id="path18" class="cls-1" d="M397.06,1514.98v-66.13h16.35c19.26,0,28.1,8.23,28.1,20.23,0,25.37-44.45,45.91-44.45,45.91ZM475.81,1466.14c0-33.84-30.72-47.77-70.37-47.77h-42.67v177.8h34.29v-42.57c5.41-4.02,15.64-10.38,25.44-17.1l29.47,59.67h36.07l-38.91-80.53c14.77-13.78,26.67-30.4,26.67-49.5"/>
        <path id="path20" class="cls-1" d="M837.6,1514.98v-66.13h16.35c19.26,0,28.1,8.23,28.1,20.23,0,25.37-44.46,45.91-44.46,45.91h0ZM916.35,1466.14c0-33.84-30.72-47.77-70.37-47.77h-42.67v177.8h34.29v-42.57c5.41-4.02,15.64-10.38,25.44-17.1l29.47,59.67h36.07l-38.91-80.53c14.78-13.78,26.68-30.4,26.68-49.5"/>
        <path id="path22" class="cls-1" d="M1176.21,1514.98v-66.13h16.35c19.26,0,28.09,8.23,28.09,20.23,0,25.37-44.45,45.91-44.45,45.91ZM1254.95,1466.14c0-33.84-30.72-47.77-70.37-47.77h-42.67v177.8h34.3v-42.57c5.41-4.02,15.64-10.38,25.43-17.1l29.47,59.67h36.07l-38.91-80.53c14.77-13.78,26.67-30.4,26.67-49.5"/>
        <path id="path24" class="cls-1" d="M165.11,1596.17l44.7-177.8h-34.54l-26.67,121.92h-1.02l-28.19-121.92h-28.45l-28.45,121.92h-1.02l-26.16-121.92H0l44.71,177.8h32.51l27.43-116.84h.76l27.43,116.84h32.27"/>
        <path id="path26" class="cls-1" d="M254.39,1528.85l18.02-69.85h.78l18.28,69.85h-37.08ZM254.39,1418.36l-53.35,177.8h36.06l10.93-40.63h49.79l10.91,40.63h35.84l-52.59-177.8h-37.59"/>
        <path id="path28" class="cls-1" d="M601.4,1526.31l-66.54-107.95h-28.71v177.8h34.29v-107.95h1.27l66.56,107.95h28.7v-177.8h-34.29v107.95h-1.27"/>
        <path id="path30" class="cls-1" d="M777.93,1564.42h-71.11v-44.45h53.34v-29.21h-53.34v-40.64h68.58v-31.75h-102.88v177.8h105.41v-31.75"/>
        <path id="path32" class="cls-1" d="M1341.29,1446.33c25.42,0,32.85,30.86,32.85,60.96s-7.43,60.96-32.85,60.96-32.82-30.88-32.82-60.96c0-30.1,7.43-60.96,32.82-60.96ZM1341.29,1600c45.72,0,67.13-43.27,67.13-92.71s-21.4-92.73-67.13-92.73-67.13,43.35-67.13,92.73,21.41,92.71,67.13,92.71"/>
        <path id="path34" class="cls-1" d="M1487.71,1493.3c-13.98-8.89-28.08-15.24-28.08-30.48,0-10.17,9.03-17.78,19.19-17.78,11.43,0,23,7.62,26.81,13.97l21.59-20.32c-10.16-13.97-28.07-24.13-49.67-24.13-31.76,0-52.21,19.05-52.21,48.27,0,31.75,23,45.72,41.53,56.39,14.48,8.38,28.59,14.74,28.59,29.97,0,12.7-11.57,20.32-24.27,20.32s-25.54-7.62-33.16-19.06l-20.32,20.32c11.44,17.78,34.43,29.21,54.75,29.21,31.76,0,57.29-20.32,57.29-50.81,0-31.75-23.76-44.45-42.05-55.88"/>
        <path id="path36" class="cls-1" d="M1562.63,1560.62c-11.43,0-19.06,8.89-19.06,19.05s7.62,19.05,19.06,19.05,19.05-8.89,19.05-19.05-7.62-19.05-19.05-19.05"/>
        <path id="path38" class="cls-1" d="M1032.44,1564.68v-37.03c11.2-4.46,23.6-10.28,34.97-17.42,5.33,3.56,17.14,12.93,17.14,26.05,0,17.35-15.89,27.7-52.11,28.41h0ZM1032.44,1448.05h16.66c15.74,0,23.81,4.13,23.81,13.03,0,16.03-33.67,30.34-40.47,33.06v-46.09h0ZM1090.42,1491.74c9.2-9.9,15.21-21.35,15.21-34.37,0-25.46-21.74-38.69-52.93-39.01h-54.56v177.8h34.3c55.84-1.64,84.62-24.26,84.62-58.58,0-25.45-21.43-42.15-26.64-45.84"/>
      </g>
      <g>
        <path class="cls-1" d="M1355.51,321.46v-64.5l-86.35-46.81v-67.62l-43.69-20.81C1099.59,62.42,961.23,22.89,801.02,1.04l-10.4-1.04-10.4,1.04c-159.17,21.85-298.57,61.38-423.41,121.72l-43.69,20.81v67.62l-86.34,45.77v64.5l-93.63,49.93,7.28,53.06c24.97,178.93,90.51,341.22,194.54,481.66,105.07,142.52,246.56,259.04,421.33,346.43l34.33,17.69,34.33-17.69c174.77-87.39,316.26-203.9,421.33-346.43,104.03-140.44,169.57-302.73,194.54-481.67l7.28-53.06s-92.59-49.93-92.59-49.93ZM1364.87,414.05c-8.32,59.3-36.41,254.88-179.97,446.29-145.64,197.66-336.02,293.37-394.28,322.5-57.22-29.13-248.63-124.84-394.28-322.5-142.52-190.38-170.61-385.96-178.93-446.29l86.35-46.81v-64.5l86.35-46.81v-64.5c118.59-57.22,249.67-93.63,400.52-114.43,150.84,19.77,281.93,57.22,400.52,114.43v64.5l86.35,46.81v64.5l87.39,46.81Z"/>
        <g>
          <path class="cls-1" d="M1080.86,552.41c-5.2,4.16-163.33,92.59-163.33,92.59v238.23c43.69-33.29,83.23-76.98,108.19-105.07,55.14-64.5,99.87-132.12,99.87-175.81,0-3.12,2.08-37.45-44.73-49.93Z"/>
          <path class="cls-1" d="M1099.59,417.17c0-56.18-139.4-99.87-182.05-99.87h0v236.15l109.23-58.26c55.13-29.13,72.82-58.26,72.82-78.02Z"/>
          <path class="cls-1" d="M1277.48,367.23v-64.5l-86.35-46.81v-64.5c-118.59-57.22-249.67-94.67-400.52-114.43-150.84,20.81-281.92,57.22-400.52,114.43v64.5l-86.35,46.81v64.5l-86.35,46.81c8.32,60.34,36.41,255.91,178.93,446.29,145.64,197.66,337.06,293.36,394.28,322.5,58.26-29.13,248.63-124.84,394.28-322.5,143.56-191.41,171.65-387,179.97-446.29l-87.39-46.81ZM750.05,1047.59c-58.26-61.38-110.27-138.36-147.72-216.38l-75.94,45.77c-98.83-109.23-167.49-244.47-210.14-422.37,22.89-24.97,44.73-47.85,67.62-68.66,32.25,148.76,80.1,273.6,153.97,376.59l28.09-15.6c-48.9-133.16-75.94-272.56-88.43-431.73,30.17-18.73,59.3-33.29,86.35-45.77,10.4,175.81,43.69,350.59,98.83,491.03l4.16-2.08-4.16-525.36c29.13-7.28,58.26-12.49,87.39-15.61v830.17ZM1212.98,587.77c-1.04,125.88-208.07,372.43-382.84,461.9V218.46c42.65,1.04,85.31,8.32,124.84,18.73,69.7,19.77,117.55,43.69,148.76,63.46,52.02,33.29,87.39,71.78,87.39,114.43,0,30.17-6.24,55.14-37.45,89.47,41.61,19.76,61.38,44.73,59.3,83.22Z"/>
        </g>
      </g>
    </g>
  </g>
</svg>