<?xml version="1.0" encoding="UTF-8"?>
<svg id="Layer_2" data-name="Layer 2" xmlns="http://www.w3.org/2000/svg" viewBox="0 0 2373.21 1533.96">
  <defs>
    <style>
      .cls-1, .cls-2 {
        fill: #232323;
        stroke-width: 0px;
      }

      .cls-2 {
        opacity: .5;
      }
    </style>
  </defs>
  <g id="Layer_1-2" data-name="Layer 1">
    <g>
      <path class="cls-1" d="M2373.21,710.71c-233.21,0-466.42-.04-699.63.24-8.88.01-10.85-2.3-10.84-10.96.25-228.9.2-457.8.2-686.7q0-12.93,12.65-12.94c228.24,0,456.47,0,684.71-.02,4.31,0,8.61-.22,12.92-.33v710.71ZM1945.15,428.24c.01,42.9.01,85.8.07,128.71,0,4.23-.77,8.65,2.15,12.4,90.63,0,181.26.03,271.89-.03,4.19,0,8.67,1.13,12.42-1.94.06-134.08.13-268.15.17-402.23,0-7.28-.21-14.56-.32-21.84-3.46-2.81-7.59-1.92-11.49-1.92-134.24-.04-268.48-.04-402.72,0-3.89,0-8.03-.87-11.46,2-2.9,3.43-1.99,7.57-1.99,11.46-.05,86.56-.05,173.12,0,259.68,0,3.89-.89,8.03,1.98,11.47,3.77,2.98,8.22,1.98,12.43,1.99,42.29.14,84.58.18,126.87.26Z"/>
      <path class="cls-1" d="M717.67,1214.36c-78.29,0-156.58,0-234.87,0-16.65,0-16.24-.02-15.07,16.76,1.66,23.63,6.17,46.53,14.46,68.78,15.03,40.37,43.39,67.3,83.79,80.39,44.21,14.32,89.42,16.45,133.73.48,38.25-13.78,69.68-36.69,87.25-75.03,1.98-4.31,5.07-5.71,9.44-5.71,51.09.02,102.18.05,153.26-.05,6.79-.01,6.77,3.18,5.05,8.24-14.52,42.69-33.91,82.76-62.46,118.04-46.65,57.64-109.05,87.64-180.31,100.06-80.1,13.96-159.28,10-235.35-21.55-65.25-27.06-115.6-71.51-150.89-132.92-27.39-47.65-42.79-99.16-48.36-153.48-8.45-82.23,2.6-161.55,40.94-235.59,37.28-71.97,94.74-122.51,168.84-154.74,54.14-23.55,111.06-30.49,169.24-27.41,67.96,3.59,129.76,25.25,183.26,68.31,41.93,33.75,72.03,76.47,94.1,125.15,20.63,45.5,31.11,93.69,35.41,143.11,2,23.05.43,46.41.53,69.63.03,6.4-3.87,7.59-9.16,7.55-13.6-.08-27.2-.01-40.8-.01-67.34,0-134.69,0-202.03,0ZM622.97,1092.93c47.78,0,95.55.02,143.33-.01,11.74,0,12.3-.53,9.78-11.7-5.72-25.35-13.85-49.86-26.75-72.56-14.54-25.61-34.05-45.71-62.73-55.19-30.45-10.06-61.61-12.17-93.24-7.24-30.27,4.72-56.94,16.93-79.47,38.06-27.71,26-41.37,58.6-45.96,95.62-1.61,12.97-1.52,13.01,11.73,13.02,47.78.02,95.55,0,143.33,0Z"/>
      <path class="cls-1" d="M1097.91,820.16c32.52,0,65.03.19,97.55-.14,7.47-.07,12.14,2.4,16.32,8.65,36.15,54.04,72.6,107.87,108.96,161.77,6.87,10.19,7.08,10.22,13.8.15,35.73-53.54,71.52-107.03,107.01-160.72,4.47-6.76,9.26-9.92,17.67-9.88,62.38.32,124.75.15,187.13.24,3.45,0,8.22-1.79,10.02,2.04,1.71,3.63-2.39,6.44-4.41,9.31-36.77,52.37-73.59,104.71-110.41,157.05-32.81,46.64-65.64,93.27-98.45,139.92-2.48,3.53-4.64,7.29-7.29,10.68-3.71,4.74-2.83,8.58.52,13.36,34.81,49.7,69.43,99.54,104.03,149.39,46.51,67.02,92.97,134.06,139.36,201.17,2.11,3.06,6.65,6.2,4.25,10.2-1.95,3.25-6.76,1.61-10.29,1.61-63.7.07-127.41-.1-191.11.22-8.94.05-14.45-2.65-19.47-10.29-43.53-66.27-87.48-132.26-131.32-198.32-6.84-10.31-6.73-10.19-13.4-.14-30.48,45.87-61.1,91.65-91.57,137.52-13.95,21-27.83,42.05-41.43,63.27-3.63,5.66-7.97,7.91-14.7,7.9-64.7-.18-129.4-.09-194.1-.18-2.77,0-6.58,1.57-8.08-1.78-1.15-2.56,1.71-4.73,3.17-6.86,25.79-37.81,51.6-75.61,77.43-113.39,52.97-77.48,105.81-155.05,159.11-232.3,5.88-8.53,5.87-14.47-.02-22.88-45.85-65.45-91.23-131.24-136.81-196.88-24.97-35.95-50.05-71.82-75.08-107.73-1.33-1.91-2.53-3.9-3.91-5.77-4.02-5.42-2.45-7.31,4.01-7.27,21.9.16,43.8.06,65.7.06,11.94,0,23.89,0,35.83,0Z"/>
      <path class="cls-1" d="M191.31,1168.11c0,111.46,0,222.91,0,334.37q0,14.43-14.22,14.46c-54.4.01-108.8.02-163.2,0-13.55,0-13.69-.11-13.69-12.99C.18,1279.7.24,1055.46,0,831.22c-.01-9.89,2.73-13.25,12.92-13.18,55.39.43,110.79.4,166.19.02,9.73-.07,12.39,3.32,12.37,12.69-.25,112.45-.16,224.9-.16,337.36Z"/>
      <path class="cls-1" d="M95.23,710.7c-27.86,0-55.73-.24-83.58.15-8.55.12-11.69-2.58-11.62-11.39.33-45.11.3-90.22.02-135.32-.05-8.35,3.09-10.87,11.13-10.84,56.38.23,112.77.23,169.16,0,8.08-.03,11.15,2.56,11.09,10.87-.28,45.44-.26,90.88-.02,136.32.04,7.89-3.02,10.39-10.61,10.32-28.52-.27-57.05-.11-85.57-.11Z"/>
      <path class="cls-1" d="M1805.86,143.38c3.43-2.86,7.57-2,11.46-2,134.24-.04,268.48-.04,402.72,0,3.89,0,8.02-.88,11.49,1.92-.62.04-1.24.1-1.86.16-141.25-.01-282.49-.02-423.74-.04l-.07-.05Z"/>
      <path class="cls-1" d="M2229.68,143.47c.62-.07,1.24-.12,1.86-.17.11,7.28.32,14.56.31,21.84-.04,134.08-.11,268.15-.17,402.23-.69-.05-1.38-.09-2.08-.14.03-141.25.05-282.51.07-423.76Z"/>
      <path class="cls-1" d="M2229.6,567.24c.69.05,1.39.09,2.08.14-3.76,3.06-8.24,1.93-12.42,1.94-90.63.06-181.26.03-271.89.03,0-.68,0-1.35,0-2.03,94.08-.03,188.15-.05,282.23-.08Z"/>
      <path class="cls-1" d="M1805.85,425.98c-2.87-3.44-1.98-7.58-1.98-11.47-.05-86.56-.05-173.12,0-259.68,0-3.89-.91-8.03,1.99-11.46,0,0,.08.05.08.05,0,94.16-.01,188.32-.02,282.48l-.07.07Z"/>
      <path class="cls-1" d="M1945.15,428.24c-42.29-.07-84.58-.12-126.87-.26-4.2-.01-8.66.98-12.43-2,0,0,.07-.07.07-.07,43.25.04,86.49.03,129.74.19,3.75.01,7.97-1.56,11.22,1.89-.58.06-1.16.14-1.73.24Z"/>
      <path class="cls-1" d="M1945.15,428.24c.57-.1,1.15-.18,1.73-.24.17,46.44.33,92.88.49,139.32,0,.68,0,1.35,0,2.03-2.92-3.75-2.14-8.18-2.15-12.4-.06-42.9-.06-85.8-.07-128.71Z"/>
      <path class="cls-2" d="M1947.37,567.31c-.16-46.44-.33-92.88-.49-139.32-3.25-3.45-7.47-1.87-11.22-1.89-43.25-.16-86.49-.15-129.74-.19,0-94.16.01-188.32.02-282.48,141.25.01,282.49.02,423.74.04-.02,141.26-.05,282.51-.07,423.76-94.08.03-188.15.05-282.23.08Z"/>
    </g>
  </g>
</svg>