<?xml version="1.0" encoding="UTF-8"?>
<svg id="Layer_2" data-name="Layer 2" xmlns="http://www.w3.org/2000/svg" viewBox="0 0 2737.66 800">
  <defs>
    <style>
      .cls-1 {
        fill: #232323;
        fill-rule: evenodd;
        stroke-width: 0px;
      }
    </style>
  </defs>
  <g id="Layer_1-2" data-name="Layer 1">
    <g>
      <path class="cls-1" d="M637.36,0h-150.53l-92.88,152.3L301.07,0h-150.53l243.41,347.71L637.36,0ZM165.77,673.67H0l212-273.74L0,126.19h165.77l191.6,273.74-191.6,273.74ZM622.27,126.19h165.63l-212,273.74,212,273.74h-165.63l-191.74-273.74,191.74-273.74ZM301.07,800h-150.53l243.41-347.71,243.41,347.71h-150.53l-92.88-152.3-92.88,152.3Z"/>
      <path class="cls-1" d="M2434.28,192.12c4.63-.06,9.21.84,13.47,2.64,4.26,1.8,8.1,4.47,11.27,7.83,3.36,3.32,5.99,7.29,7.77,11.66,1.78,4.37,2.65,9.05,2.57,13.77.08,4.64-.78,9.25-2.54,13.55-1.75,4.3-4.36,8.2-7.65,11.47-3.22,3.31-7.07,5.93-11.32,7.73-4.25,1.79-8.82,2.72-13.43,2.72s-9.18-.92-13.43-2.72c-4.25-1.79-8.1-4.42-11.32-7.73-3.37-3.33-6.03-7.32-7.8-11.72-1.78-4.4-2.64-9.11-2.53-13.85-.08-4.6.79-9.17,2.54-13.43,1.76-4.26,4.36-8.11,7.66-11.32,3.16-3.39,7-6.09,11.26-7.91,4.26-1.83,8.85-2.74,13.49-2.69ZM2461.48,282.42v219.21h-54.4v-219.21h54.4ZM2051.35,197.7h54.4v106.75c9.69-8.57,20.66-15.59,32.5-20.81,10.42-4.53,21.67-6.89,33.04-6.93,10.13-.16,20.18,1.76,29.54,5.64,9.36,3.88,17.82,9.65,24.85,16.93,13.75,15.62,20.75,36.07,19.45,56.84v145.5h-54.4v-96.14c.67-17.31-.55-34.64-3.68-51.67-1.77-7.9-6.12-14.98-12.37-20.13-6.32-4.56-13.97-6.9-21.76-6.66-10.65-.17-20.95,3.83-28.69,11.15-8.44,8.16-14.22,18.68-16.59,30.19-2.18,14.94-3.01,30.05-2.44,45.15v88.12h-54.4l.54-303.93ZM1433.83,200.88h-64.45l95.35,145.68-101.69,155.3h64.86l68.95-105.78,69.57,105.78h64.45l-101.69-155.3,95.76-145.68h-64.45l-63.64,96.37-63.02-96.37ZM1021.12,313.01l-34.13,34c-9.31-11.32-22.59-18.67-37.13-20.53-5.14-.26-10.24,1.12-14.55,3.94-1.59,1.09-2.89,2.55-3.8,4.25-.9,1.71-1.37,3.61-1.37,5.54.07,3.02,1.23,5.92,3.27,8.16,4.97,4.17,10.51,7.6,16.45,10.2l20.13,10.06c16.87,7.13,31.85,18.07,43.79,31.96,9.15,13.26,13.22,29.37,11.44,45.39-1.77,16.01-9.26,30.85-21.09,41.78-16.01,13.55-36.58,20.51-57.53,19.45-14.84.43-29.55-2.75-42.88-9.26-13.34-6.51-24.89-16.17-33.67-28.14l33.86-36.99c6.21,7.46,13.72,13.73,22.17,18.49,7.02,4.15,14.96,6.53,23.12,6.93,6.28.32,12.48-1.56,17.53-5.3,1.96-1.36,3.58-3.17,4.71-5.27,1.13-2.1,1.76-4.44,1.82-6.83,0-8.43-7.89-16.73-23.94-24.75l-18.49-9.25c-35.49-17.95-53.31-40.8-53.31-67.18-.03-8.42,1.75-16.75,5.23-24.42,3.47-7.67,8.56-14.51,14.9-20.04,14.08-12.51,32.45-19.09,51.27-18.36,14.15-.15,28.13,3.07,40.79,9.38,12.39,6.39,23.15,15.56,31.41,26.79ZM1044.11,282.28h54.4l44.19,124.83,47.32-124.83h33.04l46.5,123.34,44.19-123.34h54.4l-80.77,219.34h-34.81l-46.78-124.97-48.14,124.97h-34.54l-79.01-219.34ZM1669.36,201.51h55.62v80.77h32.64v47.46h-32.64v171.88h-55.07v-171.88h-28.15v-47.46h28.15l-.55-80.77ZM1963.5,351.91l45.83-25.29c-10.99-15.57-25.79-28.07-42.97-36.31-18.21-9.04-38.28-13.7-58.61-13.6-22.2-.34-44.12,4.9-63.77,15.23-15.71,8.36-29.24,20.28-39.51,34.81-10.26,14.53-16.99,31.26-19.64,48.85-2.64,17.59-1.13,35.56,4.42,52.46,5.54,16.9,14.97,32.27,27.52,44.88,11.87,11.71,26.06,20.81,41.66,26.72,15.6,5.9,32.26,8.47,48.91,7.55,19.06.97,38.07-2.7,55.41-10.68,17.33-7.98,32.48-20.04,44.13-35.15l-43.38-29.64c-6.98,8.36-15.81,14.99-25.8,19.36-9.98,4.37-20.84,6.35-31.72,5.8-8.79.36-17.57-1.01-25.83-4.04-8.27-3.03-15.85-7.67-22.31-13.63-6.08-5.91-10.85-13.03-14.02-20.9-3.16-7.87-4.63-16.31-4.34-24.79-.28-8.76,1.26-17.48,4.54-25.6,3.28-8.13,8.22-15.48,14.5-21.58,6.65-6.28,14.5-11.16,23.07-14.33,8.58-3.18,17.7-4.59,26.84-4.16,10.13-.22,20.21,1.59,29.64,5.3,9.7,4.39,18.38,10.78,25.43,18.77ZM2341.39,445.94c-3.84-1.57-7.95-2.33-12.09-2.25-4.16-.07-8.29.7-12.15,2.26-3.85,1.57-7.35,3.89-10.28,6.85-4.62,4.39-7.79,10.07-9.11,16.29-1.32,6.23-.74,12.71,1.69,18.59,2.43,5.88,6.58,10.9,11.91,14.38s11.59,5.27,17.95,5.13c6.35.11,12.59-1.7,17.9-5.19,5.3-3.49,9.43-8.51,11.84-14.38,2.41-5.88,2.98-12.35,1.66-18.56-1.33-6.21-4.5-11.88-9.1-16.26-2.89-2.96-6.37-5.3-10.21-6.86ZM2679.73,292.21c-17.75-10.21-37.86-15.55-58.34-15.5h-.28c-22.7.25-44.83,7.19-63.61,19.96-18.77,12.77-33.35,30.8-41.92,51.83-8.58,21.03-10.74,44.12-6.24,66.38,4.5,22.26,15.47,42.69,31.54,58.73,10.4,10.87,22.92,19.46,36.8,25.24,13.89,5.78,28.81,8.62,43.84,8.34,20.59.24,40.87-5.02,58.75-15.23,17.55-9.96,32.04-24.54,41.89-42.16,10.24-17.63,15.59-37.68,15.5-58.06.03-20.24-5.33-40.12-15.5-57.61-10.18-17.49-24.82-31.96-42.43-41.94ZM2599.24,333.28c7.35-3.07,15.28-4.55,23.24-4.35,7.98-.16,15.9,1.35,23.26,4.44,7.35,3.09,13.98,7.69,19.44,13.51,11.01,12.78,17.06,29.09,17.06,45.96s-6.05,33.18-17.06,45.96c-5.61,5.65-12.29,10.13-19.64,13.19-7.35,3.06-15.23,4.63-23.2,4.63s-15.85-1.57-23.2-4.63c-7.35-3.06-14.03-7.54-19.64-13.19-11.46-12.65-17.47-29.32-16.73-46.37-.33-8.36,1-16.71,3.92-24.55,2.91-7.84,7.36-15.03,13.08-21.14,5.46-5.8,12.09-10.39,19.45-13.46Z"/>
    </g>
  </g>
</svg>