<?xml version="1.0" encoding="UTF-8"?>
<svg id="Layer_2" data-name="Layer 2" xmlns="http://www.w3.org/2000/svg" viewBox="0 0 2342.14 767.33">
  <defs>
    <style>
      .cls-1 {
        fill: #232323;
        stroke-width: 0px;
      }
    </style>
  </defs>
  <g id="Layer_1-2" data-name="Layer 1">
    <g>
      <path class="cls-1" d="M443.26,272.53c40.66,0,81.33.33,121.99-.22,11.2-.15,15.84,2.28,17.22,14.7,17.47,157.27-74.36,276.66-217.54,304.12C192.34,624.24,24.55,504.49,2.14,330.89-16.7,184.86,90.95,37.26,238.6,7.33c96.25-19.51,183.08-.65,259.01,63.57,11.44,9.67,10.55,14.9.41,23.78-12.01,10.52-23.37,21.89-33.99,33.81-7.96,8.93-13.04,10.25-23.49,1.72-117.35-95.87-292.26-44.57-339.71,99.11-45.79,138.66,51.78,279.65,198.28,285.07,50.52,1.87,97.19-11.37,138.03-43.07,32.81-25.47,51.01-58.75,59.77-98.5,3.16-14.32,1.96-19.96-15.46-19.54-52.95,1.3-105.97-.03-158.94.8-14.37.22-19.7-3.42-18.42-18.23,1.32-15.23,1.18-30.74.03-46-1.02-13.53,2.89-18.01,17.15-17.66,40.64,1,81.32.35,121.98.35Z"/>
      <path class="cls-1" d="M1741.8,550.64c-23.51,22.93-47.34,37.11-75.99,42.21-95.45,16.99-191.13-52.18-210.53-152.26-19.91-102.75,47.4-204.42,150.49-224.94,49.86-9.93,95.27,1.17,132.17,37.81,1.72-1.42,3.3-2.08,3.37-2.87,2.32-26.42,2.31-26.94,28.58-26.24,16.98.46,38.7-7.6,49.62,3.54,10.05,10.25,2.93,31.58,2.98,48,.27,92.62.33,185.25.03,277.87-.11,33.75-2.43,67.26-13.34,99.76-21.83,65-76.34,106.66-145.2,112.76-82.46,7.3-144.82-23.28-187.86-93.75-7.44-12.19-9.1-19.89,7.74-24.87,14.65-4.33,28.85-10.71,42.52-17.61,11.35-5.73,16.35-2.9,22.64,7.84,29.78,50.82,85.92,68.38,138.47,44.08,41.57-19.23,51.24-56.59,54.21-97.28.71-9.72.11-19.54.11-34.03ZM1747.01,403.77c-.25-5.51-.32-11.03-.79-16.53-3.84-45.34-35.95-85.54-76.64-96.06-41.04-10.62-85.01,5.95-110.17,41.51-30.04,42.46-29.02,105.03,2.41,146.47,41.9,55.25,125.45,54.13,164.21-2.45,14.98-21.87,21.98-46.33,20.99-72.94Z"/>
      <path class="cls-1" d="M811.6,212.68c110.04.36,193,83.39,192.33,192.52-.65,107.69-84.61,190.73-192.93,190.82-108.86.09-193.56-84.2-193.26-192.34.31-109.23,83.66-191.36,193.85-191ZM702.47,404.89c.47,75.19,64.35,129.33,132.64,112.41,58.71-14.55,93.68-72.75,82.47-137.25-9.7-55.8-60.06-96.64-113.69-92.18-59.68,4.96-101.82,53.57-101.42,117.02Z"/>
      <path class="cls-1" d="M1036.35,403.42c.26-108.62,82.79-189.95,192.61-189.8,109.39.15,191.7,82.17,191.58,190.91-.12,107.45-84.73,191.15-192.73,190.66-108.57-.5-191.72-83.77-191.46-191.77ZM1337.66,411.28c-.3-80.78-60.17-135.57-126-122.86-48.77,9.42-79.15,39.28-89.37,86.61-10.4,48.19.48,92.01,41.35,123.61,34.08,26.36,72.55,30.09,111.11,11.31,43.63-21.25,61.91-59.09,62.91-98.67Z"/>
      <path class="cls-1" d="M2171.66,212.46c78.57,1.25,129.24,43.13,161.18,111.32,14.71,31.4,14.12,31.78-17.54,44.87-70.91,29.3-141.71,58.88-212.94,87.41-13.63,5.46-12.67,10.21-5.65,20.47,38.75,56.6,122.35,59.44,168.73,4.29,9.82-11.68,15.73-12.82,27.23-3.45,12.32,10.04,26.12,18.42,39.86,26.53,8.63,5.09,8.63,8.85,2.83,16.73-43.61,59.2-124.77,87.91-199.12,69.79-75.9-18.5-131.12-77.08-142.7-151.39-14.28-91.66,25.3-173.72,101.21-209.54,24.26-11.45,49.79-17.54,76.92-17.03ZM2076.16,397.29c48.49-19.91,96.75-39.39,144.64-59.73,8.31-3.53,23.06-3.4,22.91-13.92-.15-10.46-11.41-18.33-21.07-24.03-6.28-3.7-13.13-6.8-20.1-8.94-64.67-19.81-132.97,37.11-126.38,106.61Z"/>
      <path class="cls-1" d="M1872.3,301.72c0-87.15.34-174.3-.34-261.44-.11-14.42,3.56-19.47,18.32-18.32,16.53,1.29,33.26.85,49.86.11,10.64-.48,13.82,3.41,13.6,13.72-.57,26.99-.19,54-.19,81.01,0,149.13-.26,298.27.38,447.4.07,16.18-3.93,21.97-20.44,20.34-14.64-1.45-29.62-1.29-44.29-.02-14.37,1.24-17.3-4.24-17.21-17.66.59-88.37.31-176.75.31-265.13Z"/>
    </g>
  </g>
</svg>