<?xml version="1.0" encoding="UTF-8"?>
<svg id="Layer_2" data-name="Layer 2" xmlns="http://www.w3.org/2000/svg" viewBox="0 0 2006.56 1463.56">
  <defs>
    <style>
      .cls-1 {
        fill: #7dc9d9;
      }

      .cls-1, .cls-2 {
        stroke-width: 0px;
      }

      .cls-2 {
        fill: #232323;
      }
    </style>
  </defs>
  <g id="Layer_1-2" data-name="Layer 1">
    <g>
      <g>
        <g>
          <g>
            <path class="cls-1" d="M442.43,160.34c14.33-23.99,28.14-48.5,41.64-73.05,3.02-5.49,11.11-21.54,8.52-20.64-10.69,3.72-21.92,6.32-33.12,8.33-91.72,15.13-184,35.47-265.85,81.16-7.55,4.37-8.7,5.38-2.57,1.76,1.15-.68,2.3-1.36,3.45-2.05-9.1,18.05-25.56,34.88-37.74,51.16-12.05,16.12-24.2,32.22-36.09,48.41-35.43,48.26-69.43,97.83-103.15,147.45-4.62,7.92-2.46,10.37,7.19,6.69,72.85-34.08,149.61-58.41,228.41-70.27,20.87-3.14,43.49-2.48,63.87-8.08,8.66-2.38,18.55-8.99,24.12-16.23,34.59-51.03,69.78-101.85,101.31-154.64ZM436.46,75.74q11.74-1.97,23.55-3.73c-5.69,8.87-11.38,17.73-17.07,26.6q-11.89,1.7-23.73,3.65c5.75-8.84,11.5-17.68,17.24-26.51ZM362.5,90.72q11.61-2.68,23.29-5.08c-5.87,8.82-11.74,17.65-17.62,26.47q-11.75,2.41-23.45,5.11c5.93-8.83,11.85-17.66,17.78-26.5ZM326.38,100.11q11.45-3.2,23.02-6.04c-6.09,8.88-12.19,17.75-18.28,26.62q-11.53,2.71-22.94,5.76c6.07-8.78,12.13-17.56,18.2-26.34ZM290.58,111.53q.68-.43,1.35-.87,10.49-3.43,21.14-6.48c-6.04,8.87-12.08,17.73-18.11,26.6q-11.24,3.38-22.33,7.15c5.99-8.8,11.97-17.6,17.96-26.41ZM255.95,124.77q10.86-4.58,21.95-8.66c-6.13,8.89-12.25,17.78-18.38,26.67q-11.17,4.1-22.13,8.68c6.19-8.9,12.38-17.8,18.57-26.7ZM65.52,385.41c-8.57,3.22-27.29,16.84-35.74,12.51.88-1.81,1.71-3.8,2.65-5.43,31.04-53.82,75.11-110.44,114.59-164.12,10.54-14.33,21.23-28.62,31.87-42.91,5.36-7.21,26.5-35.98,26.21-36.12-.64-.3-3.17,1.86.86-.37,3.61-2,18.12-9.65,24.06-12.47,1.22-.67,2.44-1.34,3.66-2.01-6.21,2.67-14.53,7.25-19.46,9.62-.88,1.28-1.75,2.55-2.63,3.83-34.49,45.29-69.27,90.5-101.96,136.99-20.72,29.46-40.8,59.68-59.88,90.28-2.04,3.27-8.97,14.64-8.72,14.96,1.86,2.37,18.42-7.6,27.7-8.69-1.07,1.3-2.13,2.61-3.2,3.91ZM52.21,381.72c6.44-8.95,12.89-17.91,19.33-26.86q11.05-4.97,22.29-9.54c-6.37,8.96-12.74,17.92-19.12,26.88q-11.33,4.58-22.5,9.53ZM224.67,157.18q-10.81,4.88-21.36,10.29c6.3-8.89,12.6-17.79,18.9-26.68q10.42-5.44,21.14-10.31c-6.23,8.9-12.45,17.8-18.68,26.7ZM111.61,357.79q-11.57,3.99-23,8.35c6.33-8.95,12.67-17.91,19-26.87q11.45-4.52,23.06-8.66c-6.35,9.06-12.71,18.12-19.06,27.18ZM149.63,345.1q-11.78,3.4-23.43,7.17c6.24-8.93,12.48-17.86,18.72-26.8q11.57-3.74,23.27-7.11c-6.19,8.91-12.37,17.83-18.56,26.74ZM187.8,334.4q-11.94,2.83-23.79,6.02c6.16-8.9,12.31-17.8,18.47-26.7q11.88-3.33,23.87-6.3c-6.18,8.99-12.37,17.99-18.55,26.98ZM226.88,325.42q-12.08,2.25-24.08,4.86c6.08-8.87,12.15-17.73,18.23-26.6q11.92-2.59,23.93-4.82c-6.02,8.85-12.05,17.71-18.07,26.56ZM167.15,271.4c1.98-24.37,26.81-47.45,43.78-63.45,23.67-22.32,52-42.97,82.73-53.66,18.6-6.47,53.92-11.83,55.62,16.45,1.79,29.77-32.91,57.55-53.26,72.37-9.94,7.24-132.66,74.79-128.87,28.3ZM266.79,318.2q-12.41,1.71-24.75,3.79c5.99-8.85,11.98-17.7,17.98-26.55q12.04-2.03,24.14-3.73c-5.79,8.83-11.57,17.65-17.36,26.48ZM405.45,104.83q-11.78,2.05-23.56,4.32c5.84-8.82,11.68-17.64,17.52-26.47q11.69-2.27,23.39-4.34c-5.78,8.83-11.56,17.66-17.34,26.49ZM298.31,289.57q.72-.34,1.44-.68,11.69-1.43,23.43-2.54c-5.69,8.86-11.39,17.72-17.08,26.59q-12.27,1.12-24.48,2.59c5.57-8.65,11.14-17.31,16.7-25.96ZM354.5,277.03c-8.73,12.78-17.1,26.87-26.45,38.23-11.43,13.89-34.01,10.26-50.75,13.66,1.04-8.61,21-6.62,27.32-8.37,1.89-.52,10.68-6.71,12.13-8.22,28.95-30.1,53.95-69.83,77.41-105.3,28.82-43.57,52.88-90.91,77.64-137.41-11.28.99-24.11,3.24-35,6.62-.29.28-.77.62.32.5.95-.1,22.64-3.76,24.49-4.09,5.43-.98,16.67-5.21,19.21-4.73,3.69.7-50.28,92.24-58.76,106.21-21.17,34.88-44.42,69.02-67.54,102.9Z"/>
            <g>
              <path class="cls-1" d="M177.15,302.28s3.05-4.86,3.88-6.19c1.8-2.86,3.51-5.57,5.15-8.26,2.33-3.82,2.32-5.38-.04-4.64-1.04.33-3.07,1.21-6.86,3.56-3.19,1.98-6.38,3.98-9.57,5.99-2.18,1.37-4.35,2.75-6.52,4.14-.71.45-1.24.72-1.91,1.07-.33.17-.78.4-1.45.75-.84.44-1.26.66-2.1,1.11-3.06-2.11-4.56-3.14-7.53-5.13.96-.92,1.44-1.39,2.4-2.31,2-1.92,3.89-3.73,5.7-5.45,3.82-3.64,7.11-6.78,10.32-9.96,2.57-2.54,3.92-4.4,3.81-5.24-.11-.81-1.62-.73-4.26.25-.16.06-.33.12-.5.19-3.61,1.42-7.25,2.95-11.1,4.59-1.76.75-3.54,1.53-5.37,2.32-1,.44-1.51.66-2.51,1.1,1.97-5.56,2.96-8.33,4.97-13.86,1.1-.79,1.65-1.19,2.74-1.98,1.79-1.29,3.61-2.6,5.46-3.91,4.2-3,8.54-6.08,12.86-9.14,3.56-2.53,6.01-4.62,6.72-5.74.69-1.1.08-1.85-1.68-2.05-2.04-.23-4.19-.33-6.46-.42-1.07-.04-2.16-.07-3.28-.11-.57-.02-.85-.03-1.41-.05,6.18-7.51,9.27-11.26,15.43-18.76,6.58-3.16,9.89-4.7,16.55-7.68.72-.32,1.43-.62,2.13-.92,3.56-1.5,5.26-2.25,7.84-4.72,2.91-2.79,2.85-3.71,2.44-5.52-.07-.34-.15-.68-.19-1.03-.16-1.29-.83-7.38-.83-7.38,7.39-6.11,14.81-12.19,22.26-18.23.61.05.92.07,1.53.12,1.11.09,2.2.2,3.29.3,2.42.24,4.72.5,7.13.71,1,.09,2.12-.06,3.25-.44,1.16-.39,2.31-1,3.4-1.83,1.63-1.23,3.23-2.98,4.49-4.92.77-1.19,1.45-2.36,2.17-3.59.53-.91,1.05-1.81,1.62-2.73.8-1.3,1.66-2.62,2.57-4.03.4-.62.81-1.26,1.24-1.92.52-.8.77-1.2,1.29-2.01,9.33-4.8,14.01-7.14,23.4-11.71.12.48.18.72.31,1.2.14.57.34,1.09.54,1.59.44,1.15.89,2.34.71,3.94-.35,3.1.86,4.55,3.24,3.9,2.54-.69,7.06-4.12,11.8-8.96,2.31-2.35,4.88-4.59,7.59-6.95,1.23-1.07,2.51-2.18,3.82-3.36.95-.85,1.43-1.28,2.38-2.13,7.33-.61,11.02-.86,18.42-1.27-.46.79-.7,1.19-1.16,1.98-.86,1.47-1.67,2.89-2.46,4.28-1.78,3.12-3.45,6.07-5.47,9.16-1.86,2.84-1.29,4.53,1.31,3.95,1.2-.27,2.78-1.02,4.58-2.17,2.44-1.56,4.84-2.84,7.16-4.07.85-.45,1.71-.9,2.55-1.37,2.07-1.13,4.14-2.25,6.49-3.51,2.53-1.36,3.79-2.03,6.32-3.38,3.12,3.54,4.7,5.33,7.88,8.96-2.55,2.29-3.83,3.43-6.39,5.72-2.86,2.56-5.55,4.97-8.25,7.39-6.44,5.78-7,7.36-6.94,7.77.06.39.9,1.15,7.5-.08.36-.07.72-.14,1.1-.21.1-.02.21-.05.32-.07.24-.06.48-.11.72-.16,1.96-.39,3.67-.73,5.14-.99,12.51-2.24,10.89,1.39,6.12,12-.31.68-.46,1.02-.76,1.7-1,.51-1.49.77-2.49,1.28-1.87.96-3.78,1.93-5.71,2.92-4.34,2.22-8.82,4.52-13.25,6.9-3.14,1.69-5.4,3.45-6.18,4.82-.81,1.4-.18,2.54,1.74,3.15,2.37.75,4.96,1.36,7.71,2.02,1.3.31,2.63.64,4,1,.72.19,1.07.28,1.79.47-5.79,7.18-8.68,10.77-14.48,17.95-3.16.65-4.73.97-7.88,1.64-3.74.8-7.36,1.59-10.98,2.37-.77.17-1.52.3-2.27.44-3.37.62-4.65.94-6.83,2.83-2.65,2.29-2.64,3.23-1.92,5.53.09.27.17.55.25.83.49,1.82.9,3.66,1.34,5.62.19.86.39,1.74.6,2.64.14.58.21.87.34,1.46-8.33,5.71-16.64,11.45-24.94,17.21-.7-.24-1.05-.37-1.75-.61-1.2-.42-2.37-.84-3.52-1.25-2.54-.91-4.93-1.76-7.54-2.4-1.17-.29-2.44-.3-3.67-.04-1.13.24-2.18.69-3.2,1.37-1.63,1.09-3.24,2.81-4.53,4.82-.77,1.2-1.42,2.39-2.11,3.66-.48.88-.96,1.76-1.49,2.66-.87,1.48-1.79,2.98-2.82,4.65-1.08,1.77-1.62,2.65-2.7,4.42-10.07,4.11-15.11,6.22-25.15,10.56-.11-.57-.16-.85-.26-1.41-.14-.75-.3-1.51-.47-2.28-.39-1.84-.79-3.75-.94-5.8-.17-2.3-.69-3-3.27-2.33-.17.04-.35.09-.54.15-2.66.8-4.14,1.95-7.53,5.24-2.88,2.79-5.72,5.58-8.72,8.53-1.33,1.31-6.48,6.37-6.48,6.37-8.53,1.25-12.77,1.94-21.19,3.46ZM281.45,183.16c-4.68,1.25-9.92,3.19-15.53,5.82-12.45,5.84-24.38,13.99-33.94,23.38-8,7.86-16.85,17.29-20.99,28.11-6.32,16.54,16.48,13.43,23.74,11.89,4.26-.91,9.26-2.89,14.25-5.1,13.4-5.95,26.99-13.9,37.38-23.84,7.5-7.17,15.93-15.82,19.04-26.24,5.05-16.9-14.35-15.35-23.96-14.01Z"/>
              <path class="cls-2" d="M319.69,138.48c4.84-.39,9.3-.7,14.19-.99-2.76,4.7-4.99,8.91-7.84,13.27-2.94,4.49-1.46,6.84,2.83,5.88,1.91-.42,4.37-1.5,7.24-3.33,2.94-1.88,6.07-3.41,9.12-5.07,3.01-1.64,6.03-3.25,9.9-5.32,1.99,2.25,3.91,4.43,6.05,6.87-4.48,4.02-8.46,7.57-12.43,11.14-11.56,10.38-11.38,13.29,1.04,10.99.38-.07.77-.15,1.17-.23.34-.07.71-.17,1.05-.24,1.93-.39,3.62-.72,5.07-.98,9.69-1.73,9.06-.31,4.26,10.3-6.1,3.14-12.6,6.42-19.06,9.91-9.5,5.13-12.74,10.76-7.08,12.54,3.56,1.12,7.54,1.91,11.82,3.03-3.68,4.56-7.02,8.69-11.01,13.64-5.55,1.15-10.78,2.3-15.98,3.43-4.14.9-7.83.89-12.89,5.28-5.37,4.66-3.91,6.64-3.25,9.08.7,2.6,1.25,5.3,1.93,8.19-6.55,4.51-12.24,8.44-19.33,13.37-3.83-1.33-7.28-2.74-11.17-3.71-1.57-.39-3.26-.37-4.98-.01-4.73,1-9.71,4.62-12.95,9.69-1.4,2.18-2.41,4.28-3.68,6.43-1.26,2.14-2.62,4.31-4.27,7-6.11,2.52-12.12,5.04-19.32,8.13-.48-2.55-1.2-5.16-1.41-8.02-.17-2.34-.68-4.14-5.29-2.95-.24.06-.49.13-.75.21-4.95,1.49-8.2,4.45-11.57,7.71-4.2,4.06-8.31,8.14-12.85,12.61-6.22.93-10.93,1.7-16.36,2.66,2.74-4.39,5.3-8.4,7.71-12.37,3.3-5.42,2.62-7.51-1.64-6.16-2.1.66-5.06,2.17-8.86,4.52-5.37,3.34-10.74,6.75-16.1,10.17-.37.24-.75.4-2.49,1.32-1.66-1.15-3.56-2.46-5.84-4.01,6.16-5.92,11.3-10.71,16.15-15.5,7.45-7.35,6.98-10.64-.82-7.74-.2.07-.4.15-.61.24-5.32,2.1-10.73,4.42-16.51,6.94,1.22-3.47,2.38-6.72,3.77-10.62,5.88-4.22,12.14-8.63,18.4-13.06,10.1-7.15,12.97-11.67,7.86-12.26-3.04-.35-6.3-.43-9.79-.57,3.98-4.83,7.56-9.19,11.83-14.38,4.83-2.29,9.43-4.41,14.06-6.48,4.29-1.92,8.2-2.98,13.52-8.05,5.81-5.55,4.21-7.01,3.93-9.25-.24-1.94-.46-3.88-.72-6.2,5.56-4.57,10.76-8.81,16.94-13.82,3.54.28,6.9.68,10.45.98,1.35.12,2.87-.12,4.45-.64,4.59-1.53,9.72-5.54,13.01-10.6,1.42-2.19,2.52-4.26,3.84-6.42,1.14-1.85,2.39-3.75,3.76-5.87,6.1-3.11,11.87-5.99,18.05-9,.47,1.83,1.45,3.17,1.22,5.18-.47,4.11,1.53,5.59,5.14,4.6,3.88-1.06,9.61-4.97,16.1-11.58,3.05-3.11,6.85-6.18,10.98-9.87M232.91,255.07c4.69-1.25,9.86-3.08,15.41-5.51,23.07-10.3,52.85-28.22,60.84-53.98,5.89-18.5-15.48-16.55-25.9-15.14-4.88,1.3-10.4,3.34-16.57,6.22-23.14,10.59-49.95,31.3-59.38,55.68-7.48,18.1,17.33,14.06,25.6,12.72M320.37,133.18c-1.9,1.7-2.85,2.55-4.75,4.26-1.24,1.11-2.5,2.21-3.71,3.26-2.74,2.39-5.58,4.86-8.14,7.48-4.47,4.56-7.11,6.17-7.52,6.32-.34.08-1.67-.23-1.34-3.2.2-1.83-.29-3.11-.76-4.35-.2-.52-.38-1.01-.52-1.53-.25-.97-.37-1.45-.61-2.41-2.13,1.03-3.2,1.55-5.33,2.6-3.64,1.79-5.45,2.69-9.08,4.51-3.58,1.8-5.36,2.7-8.93,4.53-2.16,1.11-3.24,1.67-5.4,2.79-1.03,1.61-1.55,2.41-2.58,4.01-.42.66-.83,1.29-1.23,1.91-.92,1.42-1.79,2.75-2.63,4.11-.61.98-1.15,1.92-1.68,2.83-.69,1.18-1.34,2.3-2.05,3.4-.97,1.48-1.89,2.38-2.25,2.65-.14.11-.48.22-.54.24-.38.13-1.14.32-2.06.24-2.4-.22-4.7-.48-7.11-.73-1.09-.11-2.18-.22-3.28-.32-1.23-.11-1.84-.16-3.06-.25-2.13,1.73-3.2,2.6-5.33,4.34-5.38,4.39-8.07,6.6-13.45,11.04-1.38,1.14-2.08,1.71-3.46,2.86-2.13,1.76-3.19,2.65-5.32,4.42.1.96.15,1.44.25,2.41.08.79.13,1.19.21,1.99.16,1.47.31,2.81.47,4.15.05.4.12.75.2,1.09.37,1.68.25,1.81-.76,2.78-.78.75-.91.86-4.17,2.24-.72.3-1.46.62-2.26.98-3.9,1.75-5.84,2.64-9.71,4.45-1.73.81-2.59,1.22-4.32,2.04-2,.95-3,1.44-5,2.41-1.46,1.78-2.19,2.67-3.66,4.45-3.08,3.75-4.62,5.63-7.71,9.38-1.65,2.01-2.48,3.02-4.14,5.03-1.41,1.72-2.12,2.58-3.54,4.3,1.12.02,1.69.04,2.81.07,1.12.03,2.21.06,3.28.1,2.25.07,4.39.17,6.4.39.9.1,1.26.35,1.38.54-.56.49-1.7,1.42-3.61,2.79-4.26,3.04-8.56,6.1-12.72,9.08-1.87,1.34-3.71,2.67-5.52,3.97-2.19,1.59-3.29,2.39-5.48,3.98-.47,1.29-.71,1.93-1.18,3.22-.94,2.58-1.41,3.87-2.34,6.46-.59,1.64-.89,2.46-1.48,4.11-.47,1.32-.71,1.98-1.18,3.3,2-.89,3.01-1.33,5.02-2.2,1.84-.8,3.64-1.58,5.41-2.33,3.82-1.63,7.43-3.14,11-4.55.13-.05.26-.1.39-.15,1.93-.72,2.38-.55,2.39-.49.01.08-.36.83-2.31,2.75-3.13,3.1-6.39,6.21-10.16,9.82-1.82,1.74-3.72,3.56-5.73,5.5-1.92,1.85-2.88,2.78-4.8,4.63.77.51,1.16.77,1.94,1.29,2.3,1.54,3.47,2.33,5.82,3.94.58.4.87.6,1.46,1,1.68-.89,2.52-1.33,4.2-2.22.63-.33,1.05-.55,1.36-.7.79-.4,1.68-.86,2.87-1.61,2.18-1.38,4.36-2.76,6.54-4.13,3.18-2,6.36-3.99,9.55-5.96,2.84-1.75,4.2-2.34,4.68-2.53,0,.27-.14,1.07-1.37,3.07-1.62,2.65-3.32,5.34-5.11,8.18-.84,1.34-1.7,2.7-2.58,4.1-1.06,1.69-1.59,2.54-2.65,4.24,1.88-.35,2.82-.52,4.71-.86,3.15-.56,4.73-.83,7.89-1.35,3.38-.56,5.08-.83,8.48-1.34,1.97-.3,2.96-.44,4.94-.73,1.92-1.89,2.88-2.83,4.81-4.71,1.41-1.38,2.77-2.72,4.11-4.03,2.98-2.93,5.8-5.7,8.65-8.45,1.85-1.78,2.57-2.37,2.85-2.55.02,0,.25-.11.64-.23.11-.03.22-.06.32-.09.74-.19,1.1-.29,1.25,1.73.15,2.11.56,4.03.95,5.9.16.76.32,1.5.46,2.25.21,1.13.32,1.69.53,2.82,2.36-1.02,3.53-1.53,5.89-2.53,7.73-3.3,11.6-4.92,19.35-8.09,2.3-.94,3.45-1.41,5.75-2.34.98-1.61,1.47-2.42,2.46-4.04.52-.85,1.01-1.66,1.48-2.42,1-1.63,1.95-3.17,2.84-4.69.56-.96,1.06-1.87,1.54-2.75.66-1.21,1.28-2.35,1.97-3.44.99-1.54,1.9-2.39,2.22-2.62.05-.02.15-.05.28-.07.33-.07,1.22-.2,2.36.08,2.54.62,4.9,1.45,7.41,2.34,1.16.41,2.34.84,3.55,1.25,1.4.48,2.1.72,3.51,1.21,2.33-1.61,3.5-2.42,5.82-4.03,3.07-2.12,4.61-3.18,7.68-5.3,4.66-3.21,6.99-4.81,11.65-8,2.16-1.48,3.24-2.22,5.39-3.69-.28-1.17-.41-1.76-.69-2.93-.21-.89-.41-1.77-.6-2.63-.44-1.97-.86-3.83-1.36-5.68-.08-.29-.17-.58-.26-.87-.61-1.93-.51-2.01.36-2.76.13-.11.23-.19.3-.25.57-.18,1.75-.4,2.56-.55.73-.13,1.56-.28,2.44-.48,3.66-.79,7.27-1.57,11.09-2.38,1.64-.35,3.29-.7,4.98-1.04,2.27-.47,3.4-.7,5.68-1.16,1.44-1.78,2.16-2.67,3.59-4.45,1.84-2.28,2.76-3.42,4.59-5.7,2.56-3.17,3.84-4.76,6.39-7.93,1.34-1.67,2.02-2.5,3.36-4.17-1.44-.39-2.15-.58-3.58-.96-1.37-.36-2.72-.69-4.03-1.01-2.71-.66-5.27-1.26-7.57-2-1.44-.46-1.42-1.13-1.35-1.25.06-.11.85-.9,3.16-2.14,4.36-2.34,8.81-4.62,13.12-6.81,1.94-.99,3.86-1.96,5.73-2.92,1.99-1.02,2.99-1.53,4.98-2.54.61-1.36.92-2.04,1.53-3.4,2.76-6.16,4.29-9.55,3.55-11.9-1.14-3.65-7.39-2.57-11.52-1.82-1.53.27-3.24.61-5.22,1.01-.3.06-.6.13-.91.2-.07.02-.1.02-.17.04-.3.06-.65.13-.99.19-3.02.56-4.47.63-5.13.6.59-.72,1.96-2.22,5.06-4.99,2.69-2.41,5.38-4.81,8.23-7.36,1.67-1.5,2.51-2.24,4.18-3.74,1.78-1.59,2.66-2.38,4.44-3.97-.72-.82-1.08-1.24-1.79-2.06-1.34-1.54-2.01-2.31-3.35-3.83-1.09-1.24-1.63-1.86-2.71-3.09-.74-.84-1.11-1.26-1.85-2.1-2.3,1.23-3.46,1.85-5.76,3.09-1.38.74-2.07,1.11-3.45,1.85-2.35,1.27-4.43,2.39-6.51,3.53-.81.44-1.62.87-2.43,1.31-2.38,1.27-5.08,2.71-7.87,4.5-1,.64-1.65.93-1.92,1-.45.1-.78-.5.21-2.01,2.09-3.2,3.79-6.2,5.59-9.37.78-1.38,1.58-2.78,2.43-4.24.93-1.58,1.39-2.37,2.31-3.95-1.69.09-2.53.13-4.21.23-5.69.33-8.52.52-14.17.96-1.71.13-2.56.2-4.26.35h0ZM236.55,249.64c-7.59,2.71-27.78,3.43-21.87-11.04,3.63-10.35,11.97-18.29,19.36-25.93,9.25-8.58,19.69-15.99,31.12-21.38,5.26-2.44,10.13-4.26,14.48-5.42,9.25-3.31,26.73-1.5,22.03,12.89-2.73,9.86-10.63,17.16-17.52,24.12-10.24,9.09-21.97,16.52-34.49,22.06-4.62,2.03-9.03,3.61-13.1,4.7h0Z"/>
            </g>
          </g>
          <path class="cls-1" d="M760.84,215.85c12.09-23.99,23.45-48.62,34.42-73.25,2.49-5.58,9.19-22.18,7.14-22.2-9.61-.06-19.52-3.19-28.49-6.89-89.15-39.21-173.47-54.03-270.59-44.44-8.94.84-12.5-.13-8.23-2.39.84-.44,1.73-.85,2.61-1.24-15.98,34.55-45.19,66.46-65.8,98.52-31.49,48.98-59.91,100.34-88.21,151.52-3.59,8.77-.15,14.02,10.73,14.98,80.32-2.55,160.5,4.99,237.3,25.72,20.25,5.47,41.42,16.47,62.03,17.96,8.87.64,17.38-3.93,21.9-9.99,29.41-48.89,59.59-97.53,85.17-148.31ZM750.13,97.57q11.06,4.59,22,9.56c-4.82,8.78-9.64,17.56-14.46,26.33q-11.08-4.85-22.27-9.35c4.91-8.85,9.82-17.7,14.73-26.54ZM678.71,74.06q11.56,2.92,22.93,6.47c-5.09,8.99-10.17,17.97-15.26,26.96q-11.48-3.45-23.14-6.32c5.16-9.04,10.32-18.07,15.48-27.11ZM642.1,66.89c11.79,1.84,11.83,1.85,23.5,4.4-5.33,9.03-10.67,18.06-16,27.09-11.67-2.67-11.71-2.67-23.48-4.66,5.33-8.94,10.65-17.88,15.98-26.83ZM604.77,63.19q.68-.23,1.36-.47,11.13.99,22.22,2.55c-5.29,9.09-10.57,18.17-15.86,27.26q-11.7-1.43-23.44-2.27c5.24-9.02,10.48-18.05,15.71-27.07ZM567.48,62.1q11.9-.04,23.79.45c-5.38,9.07-10.75,18.14-16.13,27.2q-11.97-.53-23.95-.53c5.43-9.04,10.86-18.08,16.3-27.12ZM397.78,321.25c-7.23-.56-48.21,6.38-38.2-11,31.79-55.2,63.31-113.66,98.72-167.86,9.26-14.18,18.85-28.3,28.34-42.41,6.7-9.96,23.65-35.83,23.65-35.83-.19-.15-.62,2.08,4.25,1.78,4.37-.27,20.49-1.76,27.26-2.01,1.06-.29,2.11-.58,3.17-.87-7.6-.37-22.86-2.04-26.93,3.76-31.43,44.3-63.18,88.61-90.99,135.06-18.21,30.42-35.17,62.28-50.55,94.34-1.68,3.49-7.54,15.08-6.94,16.4,3.38,7.46,23.05-1.92,31.09,5.3-.96,1.12-1.92,2.23-2.89,3.35ZM381.13,307.45c5.68-8.98,11.35-17.96,17.03-26.94q12.26-.06,24.52.26c-5.62,9.02-11.24,18.03-16.86,27.04q-12.34-.37-24.68-.36ZM537.23,89.64q-11.99.27-23.98.99c5.52-8.98,11.04-17.96,16.56-26.94q11.9-.77,23.81-1.11c-5.46,9.02-10.93,18.04-16.39,27.06ZM445.43,309.12q-12.32-.99-24.66-1.58c5.59-9.03,11.18-18.06,16.76-27.1q12.36.38,24.7,1.16c-5.6,9.18-11.2,18.35-16.8,27.52ZM485.38,312.45q-12.27-1.63-24.58-2.85c5.5-9.06,11-18.13,16.49-27.2q12.22,1.21,24.41,2.84c-5.44,9.07-10.88,18.14-16.32,27.21ZM524.66,317.78q-12.19-2.27-24.44-4.13c5.41-9.06,10.82-18.13,16.22-27.19q12.26,1.71,24.47,3.85c-5.42,9.16-10.83,18.31-16.25,27.47ZM564.03,325.24q-12.07-2.91-24.21-5.43c5.31-9.01,10.62-18.03,15.93-27.04q12.04,2.58,24,5.59c-5.24,8.96-10.48,17.92-15.72,26.88ZM493.14,218.74c-4.27-52.38,74.88-97.59,121.11-94.11,29.52,2.22,56.24,22.87,58.3,53.79,2.09,31.34-20.14,56.97-46.65,70.41-34.49,17.48-128.22,25.64-132.76-30.09ZM603.45,334.87c-12.26-3.64-12.19-3.62-24.41-6.83,5.2-8.92,10.39-17.84,15.58-26.76,11.89,3.25,11.83,3.24,23.74,6.91-4.97,8.89-9.94,17.78-14.91,26.68ZM722.34,119.37q-11.27-4.24-22.65-8.01c5.04-8.95,10.09-17.9,15.13-26.86q11.28,3.85,22.4,8.2c-4.96,8.89-9.92,17.77-14.88,26.66ZM632.21,312.25q.68-.1,1.36-.19,11.4,3.77,22.69,7.85c-4.83,8.79-9.66,17.57-14.49,26.36q-11.85-4.12-23.82-7.91c4.75-8.7,9.5-17.4,14.25-26.1ZM685.68,322.48c-7.38,12.18-14.26,26.15-22.5,36.44-10.11,12.64-34.98-2.44-48.32-5.14-.43-10.16,20.77,1.03,26.08,1.54,1.69.16,9.86-3.83,11.11-5.07,26.13-25.82,47.47-65.83,66.43-98.61,25.56-44.19,44.5-92.88,64.48-140.48-9.36-4.4-21.22-9.93-31.46-11.71-.14.32-.44.63.61,1.19.92.49,21.02,9.11,22.7,9.79,4.94,1.99,15.14,3.31,16.69,4.35,3.74,2.5-16.09,40.1-20.93,50.35-9.17,19.39-18.23,39.07-27.94,58-17.29,33.71-37.19,66.7-56.97,99.36Z"/>
          <path class="cls-1" d="M1062.88,346.84c10.16-25.36,19.56-51.27,28.58-77.16,2.03-5.84,7.67-23.62,6.07-24.29-5.48-2.28-16.12-5.46-26.41-8.19-91.15-24.35-172.98-63.62-257.32-104.96-8.14-4.18-11.05-9.86-8.96-10.08,2.26-.24-2.33,7.08-5.14,11.62-5.99,9.67-11.85,19.42-17.7,29.16-10.37,17.28-20.99,34.61-30.75,52.09-27.1,48.53-50.05,99.89-73.08,150.85-2.78,9.33.9,17.22,11.27,22.69,75.65,28.35,148.98,63.04,221.1,98.33,18.78,9.19,38.67,23.56,58.91,26.9,8.34,1.37,16.28-3.15,20.25-9.5,25.53-51.99,51.71-103.86,73.19-157.45ZM1042.35,230.9q11.3,3.91,22.68,7.54c-4.02,8.98-8.04,17.96-12.06,26.93q-11.41-3.84-22.75-7.93c4.04-8.85,8.09-17.7,12.13-26.55ZM971.8,204.11q11.01,4.76,22.11,9.26c-4.11,8.63-8.22,17.26-12.33,25.89q-11.16-4.62-22.24-9.47c4.15-8.56,8.3-17.12,12.45-25.67ZM937.65,188.89q10.88,5.2,21.79,10.09c-4.31,8.47-8.61,16.94-12.92,25.41q-10.94-5.16-21.79-10.55c4.31-8.32,8.61-16.63,12.92-24.95ZM903.52,172.49q.6,0,1.21-.02,10.12,5.39,20.29,10.62c-4.26,8.48-8.53,16.96-12.79,25.43q-10.73-5.26-21.41-10.68c4.23-8.45,8.47-16.91,12.7-25.36ZM869.79,155.06q10.73,5.64,21.49,11.24c-4.37,8.49-8.73,16.97-13.1,25.46q-10.86-5.55-21.71-11.16c4.44-8.51,8.88-17.03,13.32-25.54ZM729.48,394.23c-9.65-4.81-45.16-10.57-36.62-28.18,26.08-53.8,51.16-112.08,81.65-165.14,13.06-22.73,43.75-73.62,43.75-73.62-.12-.1.33,3.6,4.8,6.08,4.01,2.23,18.44,9.06,24.58,12.34,5.99-.94-3.26-2.91-5.79-4.58-4.88-3.21-10.68-4.19-14.1-9.17-.82,1.03-1.63,2.06-2.45,3.09-27,41.21-54.17,82.63-76.25,126.32-15.35,30.37-29.15,62.48-41.18,94.55-1.34,3.57-6.06,14.96-5.4,17.09,2.64,8.48,32.86,11.41,27.01,21.23ZM712.99,371.42c4.71-8.53,9.42-17.07,14.13-25.61q11.45,5,22.85,10.19c-4.63,8.48-9.26,16.97-13.89,25.45q-11.51-5.12-23.09-10.04ZM843.86,174.44q-10.85-5.58-21.72-11.09c4.56-8.59,9.13-17.18,13.69-25.76q10.75,5.58,21.48,11.24c-4.48,8.54-8.97,17.08-13.45,25.61ZM772.85,397.31q-11.43-5.37-22.9-10.6c4.59-8.46,9.17-16.92,13.76-25.37q11.45,5.11,22.85,10.36c-4.57,8.54-9.14,17.08-13.7,25.61ZM809.8,414.03q-11.37-5.55-22.77-11c4.47-8.42,8.94-16.83,13.41-25.25q11.3,5.46,22.58,11c-4.41,8.41-8.81,16.83-13.22,25.24ZM846.18,430.99q-11.34-5.64-22.69-11.23c4.37-8.42,8.75-16.84,13.12-25.27q11.35,5.39,22.69,10.79c-4.37,8.57-8.74,17.14-13.12,25.71ZM882.92,448.33q-11.33-5.67-22.67-11.33c4.29-8.49,8.58-16.98,12.87-25.47q11.27,5.57,22.54,11.12c-4.25,8.56-8.5,17.12-12.75,25.68ZM811,310.45c-6.5-54.92,58.99-83.53,104.82-66.1,55.3,21.03,86.46,104.29,19.42,133.59-48.68,21.28-117.97-14.5-124.24-67.49ZM920.09,465.84q-11.56-5.73-23.1-11.49c4.23-8.61,8.46-17.22,12.69-25.83q11.29,5.52,22.6,11c-4.06,8.77-8.12,17.55-12.18,26.32ZM1017.08,252.94q-11.29-4.23-22.51-8.71c4.09-8.68,8.18-17.36,12.27-26.04q11.16,4.34,22.41,8.4c-4.06,8.78-8.12,17.57-12.17,26.35ZM945.46,445.5q.63-.03,1.27-.06,10.92,5.23,21.87,10.39c-4.02,8.96-8.04,17.93-12.07,26.89q-11.4-5.53-22.76-11.13c3.9-8.7,7.8-17.39,11.7-26.09ZM996.8,460.02c-6.31,12.67-11.85,28.06-19.3,37.97-9.22,12.26-33.43-5.68-45.7-10.26-1.2-10.72,19.71,3.64,24.48,4.64,1.56.33,9.1-3.27,10.18-4.48,23.62-26.63,41.44-68.12,57.35-101.87,21.71-46.07,36.53-96,52.46-144.95-7.99-6.32-21.17-7.93-30.95-10.97.05.03-.03.01,1.12.37,1.01.31,21.91,6.45,23.63,6.94,5.05,1.44,14.45,3.5,15.67,4.86,4.68,5.22-12.32,39.84-17.2,52.9-7.57,20.24-15.06,40.62-23.15,60.57-14.35,35.4-31.55,70-48.6,104.28Z"/>
        </g>
        <g>
          <path class="cls-1" d="M1688.25,454.87c-5.69,39.36-10.48,79.02-14.77,118.6-1.51,13.94-3.59,28.11-4.29,41.9-.56,10.93,5.96,22.74,18.01,23.71,99.84-5.36,199.28-15.3,298.68-25.85,10.27-3.13,16.71-12.63,16.9-23.03,1.29-70.23,3.16-145.65,3.65-218.15.74-108.53-1.74-217.28-4.88-325.89-1.05-6.38-2.67-28.44-15.41-21.71-58.23,48.35-121.02,91.31-187.74,125.46-17.41,8.91-39.28,14.52-54.07,27.35-6.73,5.84-11.59,17.24-12.05,26.26-12.65,84.1-31.87,167.25-44.03,251.36ZM1733.46,601.56q-12.8,1.01-25.61,1.92c2.12-14.9,4.25-29.8,6.37-44.7q12.59-1.31,25.17-2.74c-1.97,15.17-3.95,30.34-5.93,45.52ZM1814.14,593.24q-12.77,1.3-25.55,2.53c1.63-15.79,3.26-31.58,4.89-47.37q12.53-1.67,25.03-3.44c-1.46,16.09-2.91,32.18-4.37,48.28ZM1853.91,588.5q-12.74,1.42-25.5,2.77c1.51-16.29,3.02-32.58,4.52-48.86q12.46-1.5,24.9-3.07c-1.3,16.39-2.6,32.78-3.92,49.17ZM1893.81,583.07q-.59.58-1.17,1.15-12.02,1.07-24.05,2.12c1.06-16.77,2.13-33.54,3.19-50.31q12.21-1.91,24.4-3.89c-.79,16.98-1.58,33.95-2.36,50.93ZM1933.55,578.04q-12.66,1.57-25.35,3.11c.75-17.29,1.5-34.59,2.25-51.88q12.38-2.05,24.72-4.16c-.54,17.65-1.08,35.29-1.62,52.94ZM1958.2,63.82c10.42-6.05,34.97-33.85,33.85-1.66-3.77,108.62,6.3,232.04,5.59,347.96-.34,55.24,1.33,112.72-3.94,166.32-.89,9.01-6.82,18.41-12.35,20.02-8.83,2.58-19.36,1.76-28.95,3.48-4.66-10.96,6.68-8.41,12.92-9.7,13.28-2.77,19.24-8.85,19-24.03,4.99-93.04,8.99-186.23,7.88-279.28-.76-63.86-3.33-128.11-6.46-191.89-.52-10.65.99-25.05-2.34-32.13-3.27-6.96-17,6.46-24.13,9.88-2.68-2.26-3.04-5.25-1.07-8.97ZM1977.03,77.62c-.28,18.33-.56,36.66-.85,54.99q-9.67,5.68-19.46,11.21c.51-17.96,1.02-35.93,1.52-53.89q9.46-6.07,18.79-12.31ZM1949.36,522.11q12.31-2.14,24.58-4.33c-.19,18.22-.38,36.44-.56,54.66q-12.61,1.62-25.26,3.22c.41-17.85.83-35.7,1.24-53.56ZM1927.83,110.38q9.68-5.79,19.23-11.75c-.63,17.75-1.26,35.51-1.9,53.26q-9.88,5.77-19.89,11.38c.86-17.63,1.71-35.27,2.56-52.9ZM1896.37,130.07q9.89-5.49,19.65-11.16c-.96,17.2-1.93,34.4-2.9,51.6q-10.07,5.16-20.24,10.16c1.17-16.87,2.33-33.74,3.49-50.61ZM1864.6,148.54q10.08-5.18,20.05-10.55c-1.27,16.68-2.55,33.36-3.83,50.04q-10.27,5.21-20.65,10.24c1.48-16.58,2.96-33.16,4.43-49.74ZM1831.84,166.16q10.27-4.86,20.43-9.92c-1.56,16.18-3.13,32.36-4.7,48.54q-10.42,4.6-20.94,9.02c1.74-15.88,3.48-31.76,5.22-47.64ZM1925.67,280.47c19.04,61.76,2.13,180.75-69.6,205.07-35.73,12.11-64.19-11.47-74.05-44.82-12.47-42.16.26-90.34,20.17-127.41,14.65-27.27,36.73-61.75,68.74-71.55,28.56-8.74,46.95,13.44,54.75,38.71ZM1798.09,182.88q10.63-4.62,21.16-9.44c-1.83,15.7-3.67,31.41-5.52,47.11q-10.58,4.3-21.26,8.41c1.87-15.36,3.75-30.72,5.62-46.07ZM1753.9,553.88q12.56-1.5,25.11-3.11c-1.72,15.62-3.45,31.24-5.18,46.86q-12.79,1.17-25.59,2.25c1.89-15.33,3.77-30.67,5.66-46ZM1780.07,234.14q-.54.65-1.08,1.29-10.35,3.82-20.77,7.46c2.11-14.93,4.22-29.85,6.32-44.78q10.6-4.19,21.11-8.59c-1.86,14.87-3.72,29.74-5.58,44.62ZM1732.56,262.83c3.81-20.97,8.61-42.09,11.4-63.14,2.59-19.55,24.66-21.57,38.31-30.1,6.56,9.22-15.8,14.07-20.11,17.53-1.38,1.11-6.11,11.56-6.93,14.17-17.3,55.53-26.09,118.15-35.91,176.26-12.68,75.1-18.08,151.77-23.9,228.07-1.39,19.36,23.26,4.51,28.83,13.44-.76,1.59-1.48,3.41-3.01,4.03-1.34.54-24.76,1.98-26.54,1.8-5.25-.55-11.41-5.67-11.58-12.1-1.51-56.92,12.3-121.56,20.71-180.76,8.02-56.44,18.5-112.92,28.73-169.19Z"/>
          <path class="cls-1" d="M1360.52,476.32c-8.96,31.7-17.1,63.89-24.75,95.98-2.69,11.3-6.11,22.88-7.87,34.04-1.61,10.18,4.93,20.4,15.4,22.86,98.53,12.57,197.46,15.04,296.66,11.9,12.06-1.95,21.57-12.32,24.9-23.23,16.08-52.81,23.43-113.08,32.81-169.15,13.47-80.55,26.25-163.34,31.98-245.1-2.03-11.33-8.27-16.35-18.54-13.88-69.62,29.13-141.92,51.42-215.72,64.2-19.31,3.34-41.06,2.93-59.31,9.26-7.21,2.5-11.02,8.01-10.81,13.16-18.73,67.41-45.74,132.72-64.75,199.96ZM1392.02,606.03q-12.65-1.21-25.28-2.65c3.47-11.91,6.93-23.81,10.4-35.72q12.53,1.15,25.08,2.07c-3.4,12.1-6.8,24.19-10.2,36.29ZM1472.23,610.73q-12.74-.54-25.45-1.28c3.25-12.52,6.49-25.05,9.74-37.57q12.6.44,25.21.66c-3.16,12.73-6.33,25.46-9.49,38.19ZM1512.04,611.55q-12.76-.24-25.51-.67c3.27-12.84,6.54-25.69,9.8-38.54q12.56.36,25.12.54c-3.13,12.89-6.27,25.78-9.41,38.67ZM1552.21,611.2q-.65.4-1.3.8-12.05-.25-24.09-.64c2.97-13.18,5.95-26.37,8.92-39.55q12.4-.19,24.81-.55c-2.78,13.31-5.56,26.63-8.34,39.94ZM1592.32,610.53q-12.8.29-25.6.42c2.81-13.53,5.63-27.07,8.44-40.6q12.63-.48,25.26-1.12c-2.7,13.77-5.41,27.53-8.11,41.3ZM1678.28,213.8c7.98-2.13,43.18-22.72,39.63.92-13.2,87.75-22.81,180.25-39.22,269.27-7.91,42.88-14.21,88.5-26.14,129-2.04,6.92-9.14,13.92-14.92,14.9-9.23,1.56-19.52.31-29.27,1.04-2.2-9.66,8.51-5.94,14.06-6.74,11.61-1.66,19.96-3.91,22.07-17.62,16.92-71.53,33.22-143.38,44.25-215.85,7.52-49.39,13.33-99.53,18.07-149.38.52-5.45,2.9-23.44,1.4-25.03-5.91-6.22-30.82,12.88-29.94-.52ZM1699.66,224.63c-2.63,14.21-5.27,28.42-7.92,42.63q-11.06,3.15-22.2,6.09c2.76-13.97,5.52-27.93,8.28-41.9q10.96-3.29,21.84-6.81ZM1615.04,568.01q12.63-.74,25.26-1.64c-2.52,14.15-5.03,28.29-7.55,42.43q-12.81.52-25.62.91c2.64-13.9,5.28-27.8,7.91-41.71ZM1642.62,242.58q11.08-2.92,22.09-6.07c-2.82,13.83-5.65,27.66-8.48,41.49q-11.23,3.07-22.53,5.91c2.98-13.77,5.95-27.55,8.92-41.32ZM1606.64,252.59q11.19-2.53,22.32-5.3c-3,13.46-5.99,26.92-9,40.38q-11.28,2.43-22.62,4.64c3.1-13.24,6.2-26.48,9.3-39.72ZM1570.7,261.22q11.29-2.14,22.53-4.52c-3.15,13.11-6.31,26.22-9.46,39.33q-11.43,2.32-22.92,4.39c3.29-13.07,6.57-26.13,9.85-39.2ZM1534.05,268.62q11.38-1.73,22.71-3.71c-3.29,12.77-6.59,25.54-9.89,38.31q-11.45,1.67-22.95,3.1c3.38-12.57,6.76-25.13,10.13-37.7ZM1620.3,376.3c14.36,58.49-31.36,145.29-94.6,153.53-32.99,4.3-62.29-14.2-69.87-47.07-8.32-36.1,9.79-73.75,33-100.22,30.74-35.05,114.1-76.98,131.47-6.24ZM1496.7,274.74q11.67-1.34,23.29-2.94c-3.42,12.45-6.84,24.89-10.27,37.33q-11.53,1.27-23.09,2.29c3.36-12.23,6.71-24.45,10.06-36.68ZM1416.78,570.34q12.57.78,25.16,1.35c-3.29,12.41-6.58,24.81-9.87,37.22q-12.7-.86-25.37-1.94c3.36-12.21,6.72-24.42,10.08-36.63ZM1473.19,312.91q-.62.41-1.25.82-11.14.8-22.31,1.37c3.46-11.93,6.92-23.85,10.38-35.78q11.5-.88,22.96-2.02c-3.26,11.87-6.52,23.74-9.78,35.61ZM1421.34,325.6c5.56-16.43,11.64-34.38,16.64-49.71,4.01-12.29,29.48-9.92,40.56-12.27l2.39,2.6c-6.86,4.27-16.66,2.8-23.66,4.99-1.37.43-6.26,6.48-7.31,8.45-22.2,41.63-36.97,92.9-51.68,138.79-19.2,59.93-31.25,122.48-43.9,184.54-2.24,17.78,22.94,6.25,26.94,15.89-.9,1.18-1.77,2.56-3.33,2.82-1.36.23-24.36-2.47-26.08-2.93-5.07-1.35-10.63-6.73-10.2-12.04,3.79-46.2,22.89-98.72,36.32-146.19,12.81-45.24,28.15-90.21,43.29-134.95Z"/>
          <path class="cls-1" d="M1038.43,405.89c-10.21,25.52-19.57,51.67-28.51,77.74-3.16,9.23-7.18,18.82-9.27,27.82-2.23,9.63,4.35,19.91,13.25,24.67,91.65,39.66,184.89,68.98,283.35,86.16,10.78.77,21.63-5.51,26.22-14.65,20.17-40.19,32.93-89.81,46.99-134.44,19.98-63.43,41.61-131.05,51.86-197.15-3.53-6.65-11.16-10.3-22.44-10.4-75.03,5.94-150.17,3.88-224.27-7.02-19.61-2.89-39.28-7.3-58.81-10.42-6.59-1.05-8.72-.67-6.89.62-21.24,53.36-50.19,103.85-71.48,157.07ZM1061.28,529.95q-11.93-4.78-23.78-9.77c3.96-9.49,7.92-18.99,11.87-28.48q11.83,4.73,23.73,9.25c-3.94,9.67-7.88,19.33-11.82,29ZM1137.54,557.06q-12.22-3.97-24.33-8.23c3.89-10.05,7.79-20.1,11.68-30.15q12.08,3.98,24.25,7.69c-3.87,10.23-7.73,20.47-11.6,30.7ZM1175.8,568.35q-12.29-3.49-24.52-7.27c4-10.29,7.99-20.59,11.98-30.88q12.11,3.72,24.28,7.14c-3.91,10.34-7.83,20.68-11.74,31.02ZM1214.61,578q-.66.19-1.31.38-11.64-3.1-23.23-6.45c3.8-10.62,7.6-21.24,11.4-31.86q12.05,2.99,24.15,5.7c-3.67,10.74-7.33,21.48-11,32.23ZM1253.53,586.66q-12.45-2.58-24.85-5.44c3.74-10.9,7.48-21.8,11.22-32.69q12.34,2.59,24.72,4.91c-3.7,11.08-7.4,22.16-11.1,33.23ZM1366.17,273.74c9.56.08,45.12-5.75,43.68,7.62-6.94,64.15-37.49,146.15-61.29,217.3-11.42,34.14-21.75,71.34-36.66,102.56-2.55,5.34-10.09,9.86-15.79,9.54-9.27-.52-18.94-3.64-28.48-5.08-.23-10.28,31.52,6.06,37.13-13.08,22.56-56.54,44.73-113.39,61.67-171.65,11.6-39.88,21.48-80.88,30.04-121.66.94-4.48,4.92-19.44,3.1-20.56-7.28-4.49-29.94,3.04-33.4-5ZM1390.1,284.9c-3.76,11.38-7.53,22.76-11.29,34.14q-11.64-.21-23.28-.68c3.81-11.2,7.62-22.4,11.43-33.6q11.57.2,23.14.14ZM1279,555.65q12.4,2.16,24.85,4.05c-3.63,11.36-7.25,22.73-10.88,34.09q-12.52-2.16-24.99-4.59c3.68-11.18,7.35-22.36,11.02-33.54ZM1329.91,284.46q11.58.64,23.16,1c-3.83,11.09-7.67,22.19-11.51,33.28q-11.71-.42-23.42-1.11c3.93-11.06,7.85-22.11,11.77-33.17ZM1292.45,282.73q11.56,1.08,23.14,1.88c-3.9,10.81-7.8,21.61-11.7,32.41q-11.63-1.08-23.25-2.42c3.94-10.62,7.87-21.25,11.81-31.88ZM1255.47,279.61q11.53,1.51,23.09,2.76c-3.95,10.52-7.91,21.04-11.86,31.56q-11.68-1.31-23.33-2.89c4.04-10.47,8.07-20.95,12.11-31.43ZM1218.19,275q11.48,1.96,23,3.65c-4,10.23-8,20.46-12.01,30.69q-11.56-1.96-23.08-4.19c4.03-10.05,8.06-20.09,12.09-30.14ZM1298.39,393.54c10.25,55.47-47.54,116.59-103.85,107.6-72.56-11.58-85.74-101.04-27.22-139.43,40.06-26.28,119.93-28.52,131.08,31.82ZM1180.69,268.88q11.62,2.44,23.29,4.6c-4.04,9.94-8.09,19.88-12.13,29.81q-11.49-2.4-22.94-5.06c3.93-9.78,7.85-19.57,11.78-29.35ZM1086.94,505.78q11.94,4.39,23.97,8.53c-3.91,9.95-7.81,19.89-11.72,29.84q-12.06-4.41-24.03-9.07c3.93-9.77,7.86-19.53,11.79-29.3ZM1155.6,295.4q-.63.17-1.27.34-11-2.74-21.95-5.72c3.96-9.51,7.91-19.02,11.87-28.53q11.33,2.83,22.72,5.39c-3.79,9.51-7.59,19.01-11.38,28.52ZM1104.32,290.53c6.05-12.63,13.25-34.5,18.2-38.48,4.37-3.51,26.32,4.28,37.99,6.22,12.37,4.47-15.01-1.99-19.79-2.64-1.31-.18-5.24,1.6-6.33,3.01-23.23,29.79-40.72,71.77-56.86,107.3-21.74,47.85-36.34,99.44-51.68,150.27-2.29,16.09,20.96,11.42,24.55,21.94-.92.78-1.82,1.74-3.31,1.51-1.3-.2-22.86-9.32-24.46-10.23-4.71-2.68-9.66-9.02-8.95-13.61,5.89-37.78,27.04-80.64,42.3-118.66,14.44-35.97,31.5-71.43,48.35-106.62Z"/>
        </g>
      </g>
      <path class="cls-2" d="M749.69,757.85c-10.45-57.95,1.45-126.21,14.42-180.22,6.84-27.21,9.09-52.56,3.76-80.01-9.89-46.96-23.46-91.98-22.2-140.6.21-42.4-4.45-87,4.15-128.65,10.17-45.83,27.5-92.34,43.53-136.95,12.94-39.04,57.16-133.85,100.41-69.77,13.49,20.99,25.21,53.47,33.33,79.29,7.85,22.88,10.49,54.56,38.3,60.8,11.3,3.18,26.53,4.05,40.05,6.58,17.82,3.57,35.78,7.25,54.09,4.67,16.45-1.98,32.17-8.28,46.72-15.87,40.85-21.9,79.99-40.51,119.87-64.82,14.78-8.58,29.55-19.11,45.13-22.79,34.81-5.45,18.76,55.05,14.3,76.6-15.02,58.74-35.46,109.41-49.18,165.84-5.74,20.33-12.95,41.33-16.99,62.25-3.76,17.94-4.78,36.59-7.55,54.54-4.01,18.91-11.12,36.89-25.86,48.7-9.6,12.47-15.64,41.91-5,55.3,4.49,4.86,12.87,7.85,22.51,10.47,79.54,18.54,142.18,93.62,183.91,163.71,16.3,27.68,27.46,52.7,39.26,82.54,21.77,56,45.5,113.07,60.67,170.99,20.31,74.21,27.63,149.33,33.41,225.89,1.08,7.15,2.87,13.31,5.67,17.67,4.81,8.34,14.63,9.3,22.78,5.49,63.2-34.83,64.01-135.57,45.52-208.84-16.4-67.94-123.81-184.06-134.79-254.02-6.28-24.45,12.02-40.84,26.66-41.09,13.21-.22,24.88,21.65,32.01,32.48,12.77,17.23,75.24,95.3,88.92,112.38,52.78,59.36,109.02,161.44,110.02,250.4,7.77,109.91-59.5,230.21-171.43,249.42-49.61,9.72-54.47,66.69-97.24,87.36-24.42,12-54.09,11.63-81.57,13.91-158.55,14.06-336.5,15.13-492.03,6.89-22.85-1.72-44.49-8.28-67.42-11.13-8.27-1.32-44.41-3.24-37.71-9.01,5.77-3.14,14.85-4.23,20.73-8.14,17.14-8.31-9.31-39.56,7.01-63.01,22.11-40.9,84.01-4.58,91.9-48.42,1.99-100.58-21.46-248-51.28-353.82-25.73-62.94-76.66-129.62-88.7-206.76l-.04-.23Z"/>
    </g>
  </g>
</svg>