<?xml version="1.0" encoding="UTF-8"?>
<svg id="Layer_2" data-name="Layer 2" xmlns="http://www.w3.org/2000/svg" xmlns:xlink="http://www.w3.org/1999/xlink" viewBox="0 0 1890.35 1712.7">
  <defs>
    <style>
      .cls-1 {
        fill: #1c1c1b;
      }

      .cls-1, .cls-2, .cls-3, .cls-4 {
        stroke-width: 0px;
      }

      .cls-2 {
        fill: #d3d3cb;
      }

      .cls-3 {
        fill: none;
      }

      .cls-5 {
        clip-path: url(#clippath);
      }

      .cls-4 {
        fill: #fff;
      }
    </style>
    <clipPath id="clippath">
      <circle class="cls-3" cx="938.8" cy="506.26" r="506.26"/>
    </clipPath>
  </defs>
  <g id="Layer_1-2" data-name="Layer 1">
    <g>
      <g class="cls-5">
        <g>
          <path class="cls-1" d="M684.53,1105.01c.25,57.13-2.92,243.8,0,271.05,2.38,22.24,21.85,73.91,38.07,89.74-4.05,25.9-12.7,45.34-31.73,63.46-3.23-51.8,24.98-101.15-9.07-61.64q-1.81-13.6-3.63-27.2c-6.49,25.27-22.06,46.15-35.35,67.99h-5.44c-62.5-185.93-95.97-337.5-90.65-535.75,5.67-1.13,4.65,19.07,7.25,29.91,14.74,61.38,52.66,129.7,98.81,173.14q15.86-35.35,31.73-70.71Z"/>
          <path class="cls-1" d="M1096.09,1362.46c-2.78-64.12-1.62-128.05-1.81-192.18,61.66-54.67,106.65-116.24,130.54-195.81-3.93,125.36-22.36,240.7-77.96,354.44-9.89-55.54-3.26-23.22-16.32,10.88-6.83,17.85-24.04,41.79-32.63,59.83-3.7-11.97-1.28-24.92-1.81-37.17Z"/>
          <path class="cls-1" d="M1010.87,1498.43c-1.34,4.25-2.56,19.18-1.81,23.57-7.13-.9-22.68,1.26-26.29,0-4.06-1.42-22.75-39.57-28.1-38.07-6.21-23.47-4.6-26.14-18.13-48.95,25.95,6.99,58.7,40.03,74.33,63.46Z"/>
          <path class="cls-1" d="M1106.06,1639.85c-5.4-1.36-18.22,1.37-23.57,0-1-.26-12.45-11.02-16.32-12.69-45.32-19.58-54.43-11.55-53.48-71.61,22.65-14.07-1-18.02-3.63-33.54-7.13-.9-22.68,1.26-26.29,0-4.06-1.42-22.75-39.57-28.1-38.07,2.92,11.03.9,18.86,1.81,22.66,1.04,4.31,10.76,13.61,10.88,14.5.53,3.95-10.43,15.35-10.88,18.13-1.34,8.27,10.35,25.27,1.81,50.76-11.35,33.89-50.05,18.36-58.02,60.74q-17.22,7.25-34.45,14.5c-1.62-7.17,1.81-16.61-5.44-29.91-11.69-21.45-31.73-10.21-39.89-81.59-1.29-11.34,3.81-25.4,3.63-27.2-.16-1.56-9.13-13.8-9.07-19.04-6.77-3.89-18.1-.68-25.38,1.81-5.92,2.03-10.03,7.85-16.32,9.07-.42,5.98.51,12.17,0,18.13-.21,2.43.31,3.73,0,7.25-7.98,91.42-6.62,53.71-67.99,97.9-75.21-16.46-85.08,60.89-47.14,68.89,11.09,2.34,215.8,3.34,226.63,0,3.51-1.08,2.84-4.99.91-7.25,4.58,1.58,8.67,1.04,12.69-1.81.14.59,7.11,7.3,8.16,9.06,44.98-2.81,199.02,3.75,219.38,0,31.07-5.72,40.22-55.51-19.94-70.71Z"/>
          <g>
            <path class="cls-1" d="M818.69,1451.3c-7.62-.62-5.98,10.55-7.25,13.6-7.14,17.08-24.98,37.65-21.76,44.42-5.92,2.03-10.03,7.85-16.32,9.07.49-6.96-.95-16.78,0-21.76,1.74-9.12,31.82-59.42,37.17-74.33,2.75-.13,7.34,25.37,8.16,29.01Z"/>
            <path class="cls-1" d="M818.69,1451.3c2.31,10.23,3.03,21.13,7.25,30.82-1.7,3.74-10.86,24-10.88,25.38-6.77-3.89-18.1-.68-25.38,1.81-3.22-6.77,14.62-27.34,21.76-44.42,1.27-3.04-.37-14.22,7.25-13.6Z"/>
          </g>
          <g>
            <path class="cls-1" d="M907.53,1286.31c2.29,10.57,3.57,100.83,1.81,110.59-16.88,43.08-5.11-24.57-9.97-25.38q-3.17,10.42-6.35,20.85c-21.32,35.89-27.96,68.18-29.01,31.73-.89-30.93,1.4-107.24,3.63-139.6q11.33-16.32,22.66-32.63c2.13.22,16.23,29.84,17.22,34.45Z"/>
            <path class="cls-1" d="M907.53,1231.92q-8.61,9.07-17.22,18.13-6.8-9.97-13.6-19.94c5.52-17.06,15.66-34.16,22.66-50.76,5.84,18.06,6.98,34.12,8.16,52.58Z"/>
            <path class="cls-1" d="M907.53,1231.92c1.14,17.86-.03,36.45,0,54.39-1-4.61-15.09-34.23-17.22-34.45q-11.33,16.32-22.66,32.63c1.06-15.38-2.88-17.49,9.07-54.39q6.8,9.97,13.6,19.94,8.61-9.07,17.22-18.13Z"/>
          </g>
          <path class="cls-2" d="M1237.5,332.66c1.62,4.76,6.81,15.51,7.25,19.04,6.16,49-27.54,108.69-19.94,51.67,36.11-22.92-63.85-28.18-92.46-29.01,1.14-17.97-2.67-57.93,1.81-70.71,1.38-3.93,5.23-5.12,5.44-5.44,32.83,11.4,67.46,16.99,97.9,34.45Z"/>
          <path class="cls-2" d="M1150.48,263.77c-24.13,29.64-51.14,39.03-16.32,39.89-4.48,12.78-.67,52.74-1.81,70.71-21.35-.62-42.15.33-63.46,1.81-28.18,1.96-65.34,11.69-56.2,1.81,7.63-1.86,62.15-15.99,63.46-19.04,2.51-5.84-2.64-61.22,0-73.43,1.67-7.73,12.48-13,18.13-18.13,4.76-4.32,17.41-10.92,19.94-16.32,11.94,4.54,24.12,8.74,36.26,12.69Z"/>
          <path class="cls-2" d="M1237.5,332.66c-30.44-17.46-65.07-23.05-97.9-34.45,6.44-10.05,18.38-17.93,23.57-29.01,1.09.4,8.09-1.53,22.66,5.44,25.3,12.1,42.76,31.78,51.67,58.02Z"/>
          <path class="cls-2" d="M1132.35,374.36c28.61.83,128.57,6.09,92.46,29.01,2.71-7.72-8.84-4.6-25.38-7.25-44.97-7.21-88.63-12.56-134.16-9.07q1.81-5.44,3.63-10.88c21.3-1.49,42.1-2.43,63.46-1.81Z"/>
          <path class="cls-2" d="M1094.27,267.4c-5.65,5.13-16.46,10.4-18.13,18.13-10.36,4.41-32.94.11-35.35,1.81-1.31.92-1.92,18.18-4.53,24.48-8.52,20.52-33.67,33.46-54.39,22.66-12.94-6.75-29.8-52.89-46.23-67.08h158.64Z"/>
        </g>
      </g>
      <g>
        <path class="cls-4" d="M0,1107.31l53.07-4.52,2.47,44.84c11.93-20.57,36.2-46.49,70.76-46.9,30.85-.41,46.9,15.22,53.07,38.26,13.16-18.92,39.08-38.26,66.65-38.26,49.37,0,61.71,29.62,61.71,67.88v123.83l35.38,2.06v11.52h-89.68v-11.52l37.03-2.06v-123.83c0-29.21-10.7-52.25-47.72-52.25-24.27,0-48.13,18.92-60.06,36.61v139.46l37.03,2.06v11.52h-90.92v-11.52l36.61-2.06v-120.13c0-29.62-8.64-55.54-44.43-55.13-28.8,0-51.01,23.45-63.35,45.25v130l38.26,2.06v11.52H1.65v-10.7l38.67-2.06v-112.31l-1.65-58.83-38.67-2.88v-11.93Z"/>
        <path class="cls-4" d="M423.32,1292.44l42.37,2.47v11.11h-98.32v-10.7l38.67-2.06v-171.96l-38.67-2.88v-11.11l55.95-3.29v188.42ZM410.16,999.12c8.23,0,15.63,6.99,15.63,16.04s-7.4,16.04-15.63,16.04c-9.05,0-16.46-6.99-16.46-16.04s7.4-16.04,16.46-16.04Z"/>
        <path class="cls-4" d="M540.57,1292.44l41.14,2.47v11.11h-97.09v-10.7l38.26-2.06v-279.34l-38.67-2.88v-11.52l56.36-3.7v296.61Z"/>
        <path class="cls-4" d="M669.75,1117.19l-35.79,1.65,59.24,165.38h.82l54.72-165.79-35.38-1.23v-11.52h80.22v10.7l-27.15,2.47-67.88,195.41h-11.93l-72.82-195.41-26.33-2.06v-11.11h82.28v11.52Z"/>
        <path class="cls-4" d="M950.73,1180.13v88.45c0,18.51,6.17,25.92,18.1,25.92,5.76,0,12.75-1.23,20.98-3.29v13.99c-9.87,4.11-19.34,5.35-26.33,5.35-19.75,0-29.62-12.75-30.03-36.61-12.34,16.04-34.97,37.02-69.11,37.02s-55.13-20.57-54.71-50.19c.41-44.84,44.84-67.88,123.01-68.29v-12.75c0-35.38-5.76-63.35-47.31-63.35-20.57,0-41.14,6.17-58.42,15.22l-4.53-13.16c8.64-3.7,34.56-17.69,67.88-17.69,50.19,0,60.47,32.91,60.47,79.4ZM932.63,1205.63c-71.58.41-104.91,20.98-104.91,53.89,0,21.8,16.04,36.61,39.49,36.61,32.91,0,57.18-24.68,65.41-39.08v-51.42Z"/>
        <path class="cls-4" d="M1007.09,1359.08c0-32.5,31.27-47.72,51.01-54.72-18.51-4.11-36.61-13.99-36.61-35.79,0-20.57,16.04-34.15,27.56-41.14-15.63-11.93-25.92-30.44-25.92-54.72,0-41.96,32.5-71.58,74.05-71.58,23.04,0,43.61,9.46,57.18,25.1,15.63-13.58,36.2-22.22,58.83-22.22v16.04c-16.87,0-36.2,5.76-51.42,16.87,6.17,10.28,9.46,22.63,9.46,35.79,0,43.61-33.73,69.94-74.05,69.94-13.58,0-25.92-2.88-36.61-8.23-9.46,4.94-21.39,14.81-21.39,29.62,0,22.21,27.15,26.74,61.3,27.97,63.77,2.06,99.97,16.04,99.97,55.54,0,50.19-58.42,62.53-98.73,62.53s-94.62-11.52-94.62-51.01ZM1081.55,1307.25c-14.81,1.23-56.77,14.81-56.77,48.96,0,31.68,45.67,39.9,79.4,39.9s78.16-9.46,78.16-45.66c0-28.8-28.8-41.96-100.79-43.2ZM1041.65,1171.9c0,36.2,25.92,56.77,55.54,56.77s55.54-20.57,55.54-56.77c0-33.73-24.27-56.77-55.54-56.77s-55.54,23.04-55.54,56.77Z"/>
        <path class="cls-4" d="M1413.55,1205.63c0,65.41-39.08,104.91-91.74,104.91s-92.15-39.49-92.15-104.91,39.08-104.9,92.15-104.9,91.74,39.49,91.74,104.9ZM1248.58,1205.63c0,54.3,28.8,90.1,73.23,90.1s73.23-35.79,73.23-90.1-29.62-90.09-73.23-90.09-73.23,35.79-73.23,90.09Z"/>
        <path class="cls-4" d="M1526.68,1038.61v-10.7h102.85v10.7l-42.37,2.06v251.77l42.37,2.47v11.11h-102.85v-10.7l41.96-2.06v-252.6l-41.96-2.06Z"/>
        <path class="cls-4" d="M1876.77,1099.91l-4.53-57.59h-87.63v250.13l50.6,2.47v11.11h-119.71v-10.7l50.6-2.06v-250.95h-90.1l-.41,58.01-12.75,2.06-1.23-1.23-1.65-71.99,1.23-1.23h226.68l2.47,70.76-12.34,2.06-1.23-.82Z"/>
      </g>
    </g>
  </g>
</svg>