<?xml version="1.0" encoding="UTF-8"?>
<svg id="Layer_2" data-name="Layer 2" xmlns="http://www.w3.org/2000/svg" xmlns:xlink="http://www.w3.org/1999/xlink" viewBox="0 0 1012.52 1012.52">
  <defs>
    <style>
      .cls-1 {
        fill: #1c1c1b;
      }

      .cls-1, .cls-2, .cls-3, .cls-4 {
        stroke-width: 0px;
      }

      .cls-2 {
        fill: #d3d3cb;
      }

      .cls-3 {
        fill: none;
      }

      .cls-5 {
        clip-path: url(#clippath);
      }

      .cls-4 {
        fill: #fff;
      }
    </style>
    <clipPath id="clippath">
      <circle class="cls-3" cx="506.26" cy="506.26" r="506.26"/>
    </clipPath>
  </defs>
  <g id="Layer_1-2" data-name="Layer 1">
    <g class="cls-5">
      <g>
        <path class="cls-1" d="M252,1105.01c.25,57.13-2.92,243.8,0,271.05,2.38,22.24,21.85,73.91,38.07,89.74-4.05,25.9-12.7,45.34-31.73,63.46-3.23-51.8,24.98-101.15-9.07-61.64q-1.81-13.6-3.63-27.2c-6.49,25.27-22.06,46.15-35.35,67.99h-5.44c-62.5-185.93-95.97-337.5-90.65-535.75,5.67-1.13,4.65,19.07,7.25,29.91,14.74,61.38,52.66,129.7,98.81,173.14q15.86-35.35,31.73-70.71Z"/>
        <path class="cls-1" d="M663.55,1362.46c-2.78-64.12-1.62-128.05-1.81-192.18,61.66-54.67,106.65-116.24,130.54-195.81-3.93,125.36-22.36,240.7-77.96,354.44-9.89-55.54-3.26-23.22-16.32,10.88-6.83,17.85-24.04,41.79-32.63,59.83-3.7-11.97-1.28-24.92-1.81-37.17Z"/>
        <path class="cls-2" d="M804.97,332.66c1.62,4.76,6.81,15.51,7.25,19.04,6.16,49-27.54,108.69-19.94,51.67,36.11-22.92-63.85-28.18-92.46-29.01,1.14-17.97-2.67-57.93,1.81-70.71,1.38-3.93,5.23-5.12,5.44-5.44,32.83,11.4,67.46,16.99,97.9,34.45Z"/>
        <path class="cls-2" d="M717.94,263.77c-24.13,29.64-51.14,39.03-16.32,39.89-4.48,12.78-.67,52.74-1.81,70.71-21.35-.62-42.15.33-63.46,1.81-28.18,1.96-65.34,11.69-56.2,1.81,7.63-1.86,62.15-15.99,63.46-19.04,2.51-5.84-2.64-61.22,0-73.43,1.67-7.73,12.48-13,18.13-18.13,4.76-4.32,17.41-10.92,19.94-16.32,11.94,4.54,24.12,8.74,36.26,12.69Z"/>
        <path class="cls-2" d="M804.97,332.66c-30.44-17.46-65.07-23.05-97.9-34.45,6.44-10.05,18.38-17.93,23.57-29.01,1.09.4,8.09-1.53,22.66,5.44,25.3,12.1,42.76,31.78,51.67,58.02Z"/>
        <path class="cls-2" d="M699.81,374.36c28.61.83,128.57,6.09,92.46,29.01,2.71-7.72-8.84-4.6-25.38-7.25-44.97-7.21-88.63-12.56-134.16-9.07q1.81-5.44,3.63-10.88c21.3-1.49,42.1-2.43,63.46-1.81Z"/>
        <path class="cls-2" d="M661.74,267.4c-5.65,5.13-16.46,10.4-18.13,18.13-10.36,4.41-32.94.11-35.35,1.81-1.31.92-1.92,18.18-4.53,24.48-8.52,20.52-33.67,33.46-54.39,22.66-12.94-6.75-29.8-52.89-46.23-67.08h158.64Z"/>
        <g>
          <path class="cls-4" d="M733.35,691.64c-43.14-21.85-63.19-6.61-69.8,38.07-10.94-39.36-24.6-77.9-38.98-116.03q-2.27.91-4.53,1.81c-9.07-59.79-52.63-147.77,3.63-195.81,7.03-1.73,17.19-10.18,34.45-14.5,34.17-8.57,74.3-.59,108.78-9.07-44.97-7.21-88.63-12.56-134.16-9.07q1.81-5.44,3.63-10.88c-28.18,1.96-65.34,11.69-56.2,1.81,7.63-1.86,62.15-15.99,63.46-19.04,2.51-5.84-2.64-61.22,0-73.43-10.36,4.41-32.94.11-35.35,1.81-1.31.92-1.92,18.18-4.53,24.48-8.52,20.52-33.67,33.46-54.39,22.66-12.94-6.75-29.8-52.89-46.23-67.08h158.64c4.76-4.32,17.41-10.92,19.94-16.32,11.61-24.72-86.51-40.32-104.25-41.7-51.88-4.04-88.76.14-136.88,18.13-29.48,11.02-58.77,26.8-88.84,37.17,59.19,1.4,18.37,4.38-12.69,59.83-13.11,23.41-29.06,65.68-9.06,40.79-.23.5.22,1.31,0,1.81-.56,1.28,2.7,2.34,1.81,4.53-.53,1.32-9.44,13.73-12.69,25.38-14.04,50.3-19.99,132.6-21.76,185.83-2.1-.51-4.69.95-5.44,2.72-6.2,14.5-28.74,116.53-32.63,121.47-2.06,2.61-3.34-.45-5.44-.91,2.14-34.51-46.58-26.85-67.99-14.5-57.98,33.44-69.96,219.55-71.61,281.02,5.67-1.13,4.65,19.07,7.25,29.91,14.74,61.38,52.66,129.7,98.81,173.14q15.86-35.35,31.73-70.71c.25,57.13-2.92,243.8,0,271.05,2.38,22.24,21.85,73.91,38.07,89.74,16.6,16.2,45.64,21.39,50.76,30.82,1.74-9.12,31.82-59.42,37.17-74.33,2.75-.13,7.34,25.37,8.16,29.01,2.31,10.23,3.03,21.13,7.25,30.82,9.72-21.42,25-38.82,38.07-58.02-.89-30.93,1.4-107.24,3.63-139.6,1.06-15.38-2.88-17.49,9.06-54.39,5.52-17.06,15.66-34.16,22.66-50.76,5.84,18.06,6.98,34.12,8.16,52.58,1.14,17.86-.03,36.45,0,54.39,2.29,10.57,3.57,100.83,1.81,110.59,11.42,23.9,25.99,36.04,27.2,38.07,25.95,6.99,58.7,40.03,74.33,63.46,1.55-4.91,21.4-30.6,26.29-34.45,17.35-13.64,30.02-1.56,46.23-55.3,4.53-15.01,4.86-44.89,12.69-46.23-2.78-64.12-1.62-128.05-1.81-192.18,61.66-54.67,106.65-116.24,130.54-195.81,1.97-62.91,7.06-249.42-58.92-282.83Z"/>
          <path class="cls-4" d="M701.62,303.66c1.38-3.93,5.23-5.12,5.44-5.44,6.44-10.05,18.38-17.93,23.57-29.01-.65-.24-1.68-1.86-12.69-5.44-24.13,29.64-51.14,39.03-16.32,39.89Z"/>
          <path class="cls-4" d="M590.12,290.97c-11.42,25.37-32.28,19.38-45.33-1.81-11.58,40.47,53.66,49.33,45.33,1.81Z"/>
          <path class="cls-4" d="M555.68,272.84l-6.35,4.53c.95,21.22,27.13,3.56,6.35-4.53Z"/>
        </g>
      </g>
    </g>
  </g>
</svg>