<?xml version="1.0" encoding="UTF-8"?>
<svg id="Layer_2" data-name="Layer 2" xmlns="http://www.w3.org/2000/svg" xmlns:xlink="http://www.w3.org/1999/xlink" viewBox="0 0 1890.35 1410.1">
  <defs>
    <style>
      .cls-1 {
        fill: #407287;
      }

      .cls-1, .cls-2, .cls-3 {
        stroke-width: 0px;
      }

      .cls-2 {
        fill: none;
      }

      .cls-4 {
        clip-path: url(#clippath);
      }

      .cls-3 {
        fill: #7eadc1;
      }
    </style>
    <clipPath id="clippath">
      <circle class="cls-2" cx="938.8" cy="506.26" r="506.26"/>
    </clipPath>
  </defs>
  <g id="Layer_1-2" data-name="Layer 1">
    <g>
      <g class="cls-4">
        <g>
          <g>
            <path class="cls-3" d="M1237.5,332.66c1.62,4.76,6.81,15.51,7.25,19.04,6.16,49-27.54,108.69-19.94,51.67,36.11-22.92-63.85-28.18-92.46-29.01,1.14-17.97-2.67-57.93,1.81-70.71,1.38-3.93,5.23-5.12,5.44-5.44,32.83,11.4,67.46,16.99,97.9,34.45Z"/>
            <path class="cls-3" d="M1150.48,263.77c-24.13,29.64-51.14,39.03-16.32,39.89-4.48,12.78-.67,52.74-1.81,70.71-21.35-.62-42.15.33-63.46,1.81-28.18,1.96-65.34,11.69-56.2,1.81,7.63-1.86,62.15-15.99,63.46-19.04,2.51-5.84-2.64-61.22,0-73.43,1.67-7.73,12.48-13,18.13-18.13,4.76-4.32,17.41-10.92,19.94-16.32,11.94,4.54,24.12,8.74,36.26,12.69Z"/>
            <path class="cls-3" d="M1237.5,332.66c-30.44-17.46-65.07-23.05-97.9-34.45,6.44-10.05,18.38-17.93,23.57-29.01,1.09.4,8.09-1.53,22.66,5.44,25.3,12.1,42.76,31.78,51.67,58.02Z"/>
            <path class="cls-3" d="M1132.35,374.36c28.61.83,128.57,6.09,92.46,29.01,2.71-7.72-8.84-4.6-25.38-7.25-44.97-7.21-88.63-12.56-134.16-9.07q1.81-5.44,3.63-10.88c21.3-1.49,42.1-2.43,63.46-1.81Z"/>
          </g>
          <path class="cls-3" d="M1094.27,267.4c-5.65,5.13-16.46,10.4-18.13,18.13-10.36,4.41-32.94.11-35.35,1.81-1.31.92-1.92,18.18-4.53,24.48-8.52,20.52-33.67,33.46-54.39,22.66-12.94-6.75-29.8-52.89-46.23-67.08h158.64Z"/>
        </g>
      </g>
      <g>
        <path class="cls-1" d="M0,1107.31l53.07-4.52,2.47,44.84c11.93-20.57,36.2-46.49,70.76-46.9,30.85-.41,46.9,15.22,53.07,38.26,13.16-18.92,39.08-38.26,66.65-38.26,49.37,0,61.71,29.62,61.71,67.88v123.83l35.38,2.06v11.52h-89.68v-11.52l37.03-2.06v-123.83c0-29.21-10.7-52.25-47.72-52.25-24.27,0-48.13,18.92-60.06,36.61v139.46l37.03,2.06v11.52h-90.92v-11.52l36.61-2.06v-120.13c0-29.62-8.64-55.54-44.43-55.13-28.8,0-51.01,23.45-63.35,45.25v130l38.26,2.06v11.52H1.65v-10.7l38.67-2.06v-112.31l-1.65-58.83-38.67-2.88v-11.93Z"/>
        <path class="cls-1" d="M423.32,1292.44l42.37,2.47v11.11h-98.32v-10.7l38.67-2.06v-171.96l-38.67-2.88v-11.11l55.95-3.29v188.42ZM410.16,999.12c8.23,0,15.63,6.99,15.63,16.04s-7.4,16.04-15.63,16.04c-9.05,0-16.46-6.99-16.46-16.04s7.4-16.04,16.46-16.04Z"/>
        <path class="cls-1" d="M540.57,1292.44l41.14,2.47v11.11h-97.09v-10.7l38.26-2.06v-279.34l-38.67-2.88v-11.52l56.36-3.7v296.61Z"/>
        <path class="cls-1" d="M669.75,1117.19l-35.79,1.65,59.24,165.38h.82l54.72-165.79-35.38-1.23v-11.52h80.22v10.7l-27.15,2.47-67.88,195.41h-11.93l-72.82-195.41-26.33-2.06v-11.11h82.28v11.52Z"/>
        <path class="cls-1" d="M950.73,1180.13v88.45c0,18.51,6.17,25.92,18.1,25.92,5.76,0,12.75-1.23,20.98-3.29v13.99c-9.87,4.11-19.34,5.35-26.33,5.35-19.75,0-29.62-12.75-30.03-36.61-12.34,16.04-34.97,37.02-69.11,37.02s-55.13-20.57-54.71-50.19c.41-44.84,44.84-67.88,123.01-68.29v-12.75c0-35.38-5.76-63.35-47.31-63.35-20.57,0-41.14,6.17-58.42,15.22l-4.53-13.16c8.64-3.7,34.56-17.69,67.88-17.69,50.19,0,60.47,32.91,60.47,79.4ZM932.63,1205.63c-71.58.41-104.91,20.98-104.91,53.89,0,21.8,16.04,36.61,39.49,36.61,32.91,0,57.18-24.68,65.41-39.08v-51.42Z"/>
        <path class="cls-1" d="M1007.09,1359.08c0-32.5,31.27-47.72,51.01-54.72-18.51-4.11-36.61-13.99-36.61-35.79,0-20.57,16.04-34.15,27.56-41.14-15.63-11.93-25.92-30.44-25.92-54.72,0-41.96,32.5-71.58,74.05-71.58,23.04,0,43.61,9.46,57.18,25.1,15.63-13.58,36.2-22.22,58.83-22.22v16.04c-16.87,0-36.2,5.76-51.42,16.87,6.17,10.28,9.46,22.63,9.46,35.79,0,43.61-33.73,69.94-74.05,69.94-13.58,0-25.92-2.88-36.61-8.23-9.46,4.94-21.39,14.81-21.39,29.62,0,22.21,27.15,26.74,61.3,27.97,63.77,2.06,99.97,16.04,99.97,55.54,0,50.19-58.42,62.53-98.73,62.53s-94.62-11.52-94.62-51.01ZM1081.55,1307.25c-14.81,1.23-56.77,14.81-56.77,48.96,0,31.68,45.67,39.9,79.4,39.9s78.16-9.46,78.16-45.66c0-28.8-28.8-41.96-100.79-43.2ZM1041.65,1171.9c0,36.2,25.92,56.77,55.54,56.77s55.54-20.57,55.54-56.77c0-33.73-24.27-56.77-55.54-56.77s-55.54,23.04-55.54,56.77Z"/>
        <path class="cls-1" d="M1413.55,1205.63c0,65.41-39.08,104.91-91.74,104.91s-92.15-39.49-92.15-104.91,39.08-104.9,92.15-104.9,91.74,39.49,91.74,104.9ZM1248.58,1205.63c0,54.3,28.8,90.1,73.23,90.1s73.23-35.79,73.23-90.1-29.62-90.09-73.23-90.09-73.23,35.79-73.23,90.09Z"/>
        <path class="cls-1" d="M1526.68,1038.61v-10.7h102.85v10.7l-42.37,2.06v251.77l42.37,2.47v11.11h-102.85v-10.7l41.96-2.06v-252.6l-41.96-2.06Z"/>
        <path class="cls-1" d="M1876.77,1099.91l-4.53-57.59h-87.63v250.13l50.6,2.47v11.11h-119.71v-10.7l50.6-2.06v-250.95h-90.1l-.41,58.01-12.75,2.06-1.23-1.23-1.65-71.99,1.23-1.23h226.68l2.47,70.76-12.34,2.06-1.23-.82Z"/>
      </g>
    </g>
  </g>
</svg>