<?xml version="1.0" encoding="UTF-8"?>
<svg id="Layer_2" data-name="Layer 2" xmlns="http://www.w3.org/2000/svg" xmlns:xlink="http://www.w3.org/1999/xlink" viewBox="0 0 2961.62 2383.64">
  <defs>
    <style>
      .cls-1 {
        fill: #f47dd0;
      }

      .cls-1, .cls-2, .cls-3 {
        stroke-width: 0px;
      }

      .cls-2 {
        fill: #5ac8d7;
      }

      .cls-3 {
        fill: #faa749;
      }

      .cls-4 {
        fill: #f2f2f4;
        filter: url(#drop-shadow-1);
        stroke: #231f20;
        stroke-miterlimit: 10;
        stroke-width: 5px;
      }
    </style>
    <filter id="drop-shadow-1" filterUnits="userSpaceOnUse">
      <feOffset dx="21.48" dy="21.48"/>
      <feGaussianBlur result="blur" stdDeviation="16.11"/>
      <feFlood flood-color="#000" flood-opacity=".5"/>
      <feComposite in2="blur" operator="in"/>
      <feComposite in="SourceGraphic"/>
    </filter>
  </defs>
  <g id="Layer_1-2" data-name="Layer 1">
    <g>
      <circle class="cls-3" cx="659.91" cy="659.91" r="659.91"/>
      <rect class="cls-2" x="975.44" y="1122.35" width="1986.18" height="1261.29" rx="165.43" ry="165.43"/>
      <rect class="cls-4" x="246.5" y="326.01" width="2562" height="1877.04" rx="175.07" ry="175.07"/>
      <path class="cls-3" d="M1745.36,1840.43c-47.41-25.5-88.27-58.62-114.89-105.91,25.34,24.65,53.02,44.34,87.06,54.75q.45-1.35.9-2.69c-60.73-25.32-100.16-79.04-132.84-133.74,7.84,2.56,39.1,59.43,103.22,68.21,72.3,9.9,16.26-6.73-7.18-19.75-49.36-27.4-87.06-70.35-115.79-118.48-6.46-10.81-12.68-22.65-17.95-34.11-1.63-3.55-3.49-3.35-3.59-3.59-.88-2.16-3.44-8.13-3.59-8.98-.67-3.65.46-8.63,0-12.57,12.64,1.91,26.74,5.53,39.49,1.8,1.22,1.22,16.06,8.62,21.54,12.57,10.37,5.96,4.84-7.03,5.39-12.57,3.26-32.77-6.29-46.47-39.49-53.85.65-2.78,2.23-1.12,3.59-2.69-44.05-55.06-206.75,8.38-230.67,6.28-3.15-.28-3.6-2.42-6.28-3.59-.74-.32-2.15-7.01-13.46-8.98-14.18-2.46-99.66,1.86-121.17,3.59-16.38,1.31-33.08,1.85-49.37,3.59-1.02.11-6.14,7.06-7.18,7.18-1.59.19-5.69-1.23-31.41,1.8-.5.06-.57-2.7-9.87-1.8-9.05.88-18.86,4.41-27.82,5.39-4.1.44-8.43-.31-12.57,0-.13-.52,0-1.24,0-1.8-.22-22.1,63.57-112.99,76.29-116.68,6.93-2.01,93.02,3.48,143.61-8.98,21.64-5.33,110.26-43.3,113.09-66.42-1.78,33.45,10.43.01,43.98-21.54-29.09,35.59.73,19.28,14.36-3.59,14.34.04,42.04-32.62,59.24-46.67,5.06,1.19,39.24,1.83,64.62,5.39,2.86.4,6.06-.27,8.98,0,8.11,8.83,17.84,21.91,21.54,17.95.24-.44-.22-1.27,0-1.79,4.92-11.75,9.17-40.62,7.18-52.96-4.65-16.73-32.42-37.54-46.67-36.8.93-8.21-1.77-6.81-1.8-7.18-1.61-25.13-14.71-29.24-35.9-37.7-51.5-20.56-108.71-22.1-161.56-35.9-4.01-1.05-8.59-2.38-12.57-3.59-89.17-27.23-60.86-68.53-68.21-123.86-6.6-49.6-57.75-57.38-125.66-86.17-30.84-13.07-62.81-24.06-93.35-37.7-66.52-29.71-118.61-54.32-175.03-102.32-20.09-17.1-58.96-60.24-67.32-66.42-.44-.33.94-4.35-.9-5.39-1.25-.71-10.53.28-27.82-7.18-3.36-1.45-.76-4.56-2.69-5.39-1.35-.58-5.32,3.38-8.98,1.8-1.85-.8.06-4.58-1.8-5.39-.66-.29-4.03,2.93-14.36-1.8-10.93-5-20.86-12.53-31.41-17.95-2.87-1.48-6-5.81-7.18-5.39,9.67,85.85,49.34,116.49,118.48,158.87-47.62-16.16-87.41-48.2-133.74-67.32,14.85,48.61,63.48,79.09,108.61,99.63-73.44-13.61-118.39-43.26-175.92-87.06-8.31-6.33-17.29-11.74-24.23-19.75-2.53,2.1,1.06,3.24.9,7.18,21.8,70.21,81.56,104.61,149,122.97-66.52.78-133.14-14.52-191.18-47.57,45.33,57.73,80.85,75.13,153.48,85.27-56.59,3.21-118.88-2.49-174.13-23.34,51.14,57.99,118.16,60.38,190.28,66.42-68.27,8.19-137.54,10.09-204.64-7.18,48.6,56.55,107.88,48.89,175.92,52.06-33.96,6.39-68.26,12.06-100.53,25.13,3.26,2.22,14.05,20.21,15.26,20.64,5.94,2.14,69.07-2.56,69.11.9q-28.72,5.39-57.44,10.77c5.1,3.36,29.34,29.02,31.41,29.62,4.98,1.45,51.97.2,62.83-1.8,9.12,4.55-48.79,11.21-49.37,15.26,5.65,3.43,19.96,23.6,22.44,24.23,13.63,3.49,117.02-16.51,12.57,5.39-7.36,3.87-3.32,3.14.9,7.18,22.62,21.66,48.54,17.03,51.16,17.95,1.75.61,18.38,25.99,23.34,28.72,27.2-1.17,78.3-14.3,17.05,6.28,20.61,48.13,42.9-6.85,58.34,42.19,53.94-5.35,39.7,13.46,44.88,16.16,7.1,3.69,37.52-6.93,38.6,5.39-5.83-.16-44.35,13.08-55.65,16.16-10.81,2.95-21.47,6.13-32.31,8.98-44.8,11.75-89.39,24.12-134.63,34.11-67.64,14.94-136.26,26.68-204.64,37.7-4.72,4.64-4.47,11.65-2.69,17.95,45.66,2.73,91.15-7.95,135.53-10.77-52.09,13.65-116.61,38.83-165.15,61.93,16.21,32.46,22.17,26.37,23.34,27.82,13.04,16.24-11.9,14.55-1.8,17.95-5.34,4.39,22.81,11.47,28.72,12.57,35.3,6.53,38.68-1.14,40.39,0,2.61,1.74-.41,20.28.9,22.44.63,1.05,21.21,9.89,22.44,9.87,3.94-.06,62.77-27.95,71.81-32.31,34.93-16.85,131.23-74.86,139.12-75.4,2.78-.19,46.08,9.11,54.75,10.77,1.08.21,4.31,5.18,5.39,5.39,13.81,2.64,42.66.76,58.34,7.18-10.2,21.87,15.18-4.25,19.75,2.69q-18.85,23.34-37.7,46.67,16.16-3.59,32.31-7.18-13.46,16.16-26.93,32.31c27.7-.87-3.98,19.87-5.39,29.62-.38,2.67,40.44,31.81,43.08,32.31q3.59,8.08,7.18,16.16c-13.99,5.57-27.48,12.06-41.29,17.95-23.15,9.87-45.44,19.79-68.21,30.52-68.31,32.17-314.87,165.87-362.62,206.44-17.88,15.2,19.74,1.18,13.46,14.36-21,5.58-152.07,101.03-153.48,110.4-.15.97,7.3,16.79,9.87,17.05q30.97-15.71,61.93-31.41c-7.96,7.43-72.73,49.38-73.6,53.85-.26,1.32,7.93,23.68,11.67,24.23,81.76-41.62,160.4-93.38,230.67-152.59-4.66,4.83,6.06,2.27,5.39,9.87-.13,1.44-15.14,17.55-8.98,20.64-19.61,31.29-112.26,165.48-116.68,175.03-7.93,17.12-7.52,26.04,6.28,40.39,47.55-30.34,83.66-75.82,117.58-120.27,21.95,1.03-5.35,23.27,0,35.9-5.56,13.53-36.61,86.41-29.62,93.35q7.18,2.69,14.36,5.39c53.11-41.48,86.24-105.07,115.79-165.15l12.57-8.08c-10.75,26.83,3.13,25.46,3.59,26.93.98,3.11-5.6,9.28,1.8,15.26-.85,18.71-4.19,44.71,13.46,52.06,31.75,6.49,45.14-67.21,54.75-100.53,12.48-43.28,20.36-88.27,35.01-131.04.69,24.18-5.73,135.24,16.16,145.41,51.36,12.79,36.38-66.09,38.6-99.63h3.59c8.92,62.75,53.27,5.23,55.65-60.14,33.27,6.91,76.97,11.49,109.5,1.8,3.4,24.92-2.96,25.58,17.05,25.13,19.83-.44,28.78-15.08,11.67,13.46,20.63,14.18,37.13-7.36,56.55-15.26-24.32,33.81-52.75,19.12-5.39,50.26,61.18-31.59,75.85-53.78,13.46,8.08,45.31,29.51,48-.36,88.86-27.82-30.94,54.91-56.58,45.93-7.18,64.62,70.71-49.16,90.59-96.84,27.82,11.67-.07,93.38,81.86-57.74,104.12-58.34q-12.57,21.09-25.13,42.19c32.43-19.99-25.41,46.25,0,90.65,4.33,7.57,14.94,15.58,24.23,14.36,2.31-1.18,4.15-26.98,11.67-50.26,4.39,3.68,23.74-32.21,26.93-29.62,9.15,7.42-.13,49,7.18,71.81q1.8-.45,3.59-.9c5.38,29.17,17.62,55.63,46.67,67.32-15.59-52.88-8.07-110.23,7.18-162.46,17.77-6.87,3.15,51.53,16.16,52.06,4.61,32.7,15.11,66.44,42.19,87.96,30.27,24.06,11.55.47,6.28-31.41-8.59-51.97-6.25-105.77-1.8-157.97q3.14-2.24,6.28-4.49c10.19,3.41-.34,132.66,105.02,175.03-33.18-61.95-58.54-128.3-67.32-198.36,28.95,60.61,75.48,126.13,147.2,136.43,23.55,3.38,2.57-5.62-14.36-21.54-49.22-46.27-81.48-88.49-106.81-151.69h3.59c28.27,59.55,75.03,92.69,141.82,91.55Z"/>
      <path class="cls-1" d="M1718.92,1076.16c1.56,2.2,2.92,6.08,6.17,10.28,3.79,4.89,20.8,14.46,22.6,19.52,1.1,3.07-5.14.92,4.11,21.58,19.07,42.61,30.74,14.91,34.94,21.58.9,1.44-4.97,20.75-1.03,33.91,47.24-7.47,21.83-3.29,53.43,41.1,33.86-16.78,23.17,23.37,34.94,26.72,2.63.75,11.66-3.69,19.52-4.11,18.06-.97,11.58,20.16,19.52,22.61,1.1.34,19.46-5.3,22.61-4.11,2.14.81-.54,14.3,38.02,20.55-.9,1.19,6.57-3.61-14.39,24.66-11.79.05-23.26,2.99-34.94,4.11-57.13,5.48-114.43,2.26-171.59,6.16-7.58,21.88,13.85,24.35,29.8,31.85-63.85,7.87-81.31,26.66-8.22,41.1q-23.63,15.41-47.27,30.83c3.98,32.16,32.22,10.76,55.49,14.39q-18.5,15.41-36.99,30.83c17.47,32.71,18.44,13.23,53.43,10.28-37.23,49.04-35.09,64.91,27.74,40.07,5.7,3.02-52.79,69.87,55.49,14.39q.51,3.08,1.03,6.17c-28.35,52.4,38.26,4.9,41.1,0q4.62,13.36,9.25,26.72c62.83-46.62,28.31-4.87,43.16,0,7.24-3.39,8.73-7.88,9.25-8.22,19.66-12.92,25.69-27.33,30.83-22.61,19.73,42.57,44.29,21.36,46.24-16.44,4.43,2.57,18.95,26.19,20.55,26.72,2.53.83,32.89-11.84,33.91-15.41,2.27-8-31.27-125.1-32.88-146.93,4.9-2.71,43.71-20.68,46.24-20.55,4.89.24,2.59,9.64,45.21,2.06,12.87,39.48,31.77-16.27,48.29,16.44,4.21,15.77,28.18-14.47,33.91-14.39,3.21.05,43.77,29.77,50.35-6.17,1.66,1.06,36.44,11.46,38.02,10.28.4-53.68,39.83,18.37,45.21-28.77,43.31,23.3,41.72-11.08,55.49-16.44,16.65-6.49,19.33,5.32,52.4-16.44,6.87-4.52,8.65-11.67,11.3-12.33,2.82-.7,47.83,11.93,57.54,8.22-43.22-36.73,20.89-6.65,39.05-16.44v-4.11c-57.74-24.52-17.19-4.2,32.88-20.55-57.86-21.18-38.79-7.37,2.06-18.5,6.62-1.8,29.81-12.57,34.94-16.44,17.47-13.19-6.87-1.05-31.85-1.03,38.93-16.28,70.91-41.53,100.7-70.9q-.51-2.06-1.03-4.11c-20.05,12.89-38.82,29.46-59.6,41.1-86.67,48.57,29.15-26.31,36.99-32.88,17.18-14.4,37.92-43.89,46.24-64.73,20.33-50.98-12.63,20.76-54.46,54.46-26.86,21.64-98.83,58.46-28.77,8.22,68.61-63.04,78.96-125.82,71.93-123.3-24.33,56.2-57.2,93.61-104.81,131.52-6.35-4.78-4.81-7.86-5.14-8.22,26.69-30.51,51.25-64.12,61.65-103.78,7.87-30,11.23-64.65,0-39.05-13.46,30.67-15.47,72.66-69.87,128.44-1.99-2.09-3.86-3.64-6.16-6.17,27.38-31.22,48.27-69.44,54.46-110.97-18.31,36.57-37.56,75.69-70.9,100.7-10.16-1.8,25.29-32.92,34.94-60.62,3.37-9.68,10.82-40.88,2.05-25.69-9.8,16.99-16.18,40.92-30.82,58.57-32.89,39.65-9.58-1.81-13.36-27.74-15.48,39.89-35.58,82.58-77.06,100.7-48.74,21.28-141.47,6.49-197.28,4.11,24.81-31.96,46.93-58.69,82.2-80.15,8.79,1.68,22.65,10.3,29.8,16.44,2.57-.84,1.61-33.59,1.03-36.99-5.27-30.58-18.72-23.26-43.16-26.72-9.37-1.33-19.29-1.75-28.77-2.05-1.98-.06-7.79-2.77-22.61-2.06-79.63,3.84-87.19,118.77-196.25,78.09-51.21-19.1-105.72-94.29-134.6-139.74-67.76-106.64-49.1-132.42-61.65-157.21-7.15-14.13-22.36-18.28-34.94-25.69-20.11-11.85-54.96-26.13-72.95-39.05-10.77-7.73-69.36-65.74-77.06-76.04-4.4-5.88-10.79-14.35-14.39-20.55-6.58-11.35-29.21-72.18-34.94-89.39-11.3-33.95-29.35-131.65-36.99-100.7-6,24.32,17.35,101.07,21.58,130.49-12.53-15.25-69.9-143.75-78.09-143.85-1.41,50.09,30.83,100.32,49.32,147.96-25.93-35.27-75.73-119.31-95.56-144.88-26.32-33.93.77,39.25,6.16,51.38,7.81,17.57,38.58,63.7,51.38,79.12q-1.03,1.03-2.06,2.05c-36.02-38.14-67.08-79.94-101.72-119.19,13.87,70.63,68.15,125.07,118.16,173.65-52.03-37.98-98.3-83.15-151.04-120.22q-2.57.51-5.14,1.03c33.73,50.05,75.62,93.56,123.3,130.49q-1.03,1.03-2.06,2.05c-10.32-8.38-58.37-38.75-72.95-47.27-66.35-38.73-68.66-35.61-10.28,18.5,27.73,25.7,60.32,46.76,89.39,70.9q-62.16-22.09-124.33-44.18l-3.08,3.08c23.06,15.53,75.18,59.01,96.59,66.79q9.25,9.25,18.5,18.5c-61.23-11.33-86.08-22.75-16.44,15.41q-3.08,5.65-6.16,11.3c-.32.4-4.91,2.03-6.16,8.22q-1.03,1.54-2.06,3.08c22.69,25.24,51.19,43.8,76.04,66.79-11.31,7.44-23.48,13.53-32.88,23.63,6.67,6.6,13.51,13.35,20.55,19.52,45.9,40.23,77.07,32.83,30.83,62.68,22.44,36.53,43,26.64,9.25,46.24q.51,2.05,1.03,4.11c.31,2,2.82,3.74,4.11,6.17,2.75,5.17,5.9,5.82,6.16,6.16,10.64,14,20.51,24.52,36.99,31.85q-10.28,8.73-20.55,17.47Z"/>
    </g>
  </g>
</svg>