<?xml version="1.0" encoding="UTF-8"?>
<svg id="Layer_2" data-name="Layer 2" xmlns="http://www.w3.org/2000/svg" xmlns:xlink="http://www.w3.org/1999/xlink" viewBox="0 0 2970.81 2853.56">
  <defs>
    <style>
      .cls-1, .cls-2, .cls-3, .cls-4, .cls-5, .cls-6 {
        stroke-width: 0px;
      }

      .cls-1, .cls-7 {
        fill: #f47dd0;
      }

      .cls-2 {
        fill: #5ac8d7;
      }

      .cls-8 {
        fill: #2c932a;
      }

      .cls-8, .cls-9, .cls-10, .cls-11, .cls-12, .cls-7, .cls-13, .cls-14, .cls-15, .cls-16, .cls-17, .cls-18 {
        stroke-miterlimit: 10;
      }

      .cls-8, .cls-9, .cls-10, .cls-11, .cls-12, .cls-7, .cls-14, .cls-15, .cls-16, .cls-17, .cls-18 {
        stroke: #231f20;
      }

      .cls-8, .cls-11, .cls-14, .cls-16 {
        stroke-width: 2px;
      }

      .cls-9 {
        stroke-width: 2.01px;
      }

      .cls-9, .cls-17, .cls-18 {
        fill: #f2f2f4;
      }

      .cls-10, .cls-3, .cls-12, .cls-16 {
        fill: #dbdbdb;
      }

      .cls-10, .cls-7, .cls-15 {
        stroke-width: 2.59px;
      }

      .cls-11 {
        fill: #e54a20;
      }

      .cls-12 {
        stroke-width: 2.9px;
      }

      .cls-4 {
        fill: #faa749;
      }

      .cls-13 {
        fill: none;
        stroke: #be1e2d;
        stroke-dasharray: 0 0 50 50;
        stroke-width: 2.59px;
      }

      .cls-14 {
        fill: #ffdc48;
      }

      .cls-15, .cls-5 {
        fill: #ba45b4;
      }

      .cls-6 {
        fill: #be1e2d;
      }

      .cls-17 {
        filter: url(#drop-shadow-1);
        stroke-width: 5px;
      }

      .cls-18 {
        stroke-width: 2.25px;
      }
    </style>
    <filter id="drop-shadow-1" filterUnits="userSpaceOnUse">
      <feOffset dx="20" dy="20"/>
      <feGaussianBlur result="blur" stdDeviation="15"/>
      <feFlood flood-color="#000" flood-opacity=".5"/>
      <feComposite in2="blur" operator="in"/>
      <feComposite in="SourceGraphic"/>
    </filter>
  </defs>
  <g id="Layer_1-2" data-name="Layer 1">
    <g>
      <circle class="cls-4" cx="2311.51" cy="1906.05" r="659.3"/>
      <rect class="cls-2" width="1506.55" height="1835.51" rx="218.06" ry="218.06"/>
      <rect class="cls-17" x="188.56" y="187.15" width="2448.83" height="2597.98" rx="180.06" ry="180.06"/>
      <rect class="cls-16" x="1247.21" y="255.27" width="331.53" height="70.89" rx="35.45" ry="35.45"/>
      <rect class="cls-3" x="316.65" y="2518.89" width="2192.64" height="193.93" rx="46.99" ry="46.99"/>
      <circle class="cls-11" cx="404.24" cy="290.71" r="35.15"/>
      <circle class="cls-14" cx="505.49" cy="290.71" r="35.15"/>
      <circle class="cls-8" cx="606.74" cy="290.71" r="35.15"/>
      <path class="cls-4" d="M2439.52,2438.59c-34.88-25.12-34.11-3.68-38.64-55.65-.17-2,.12-2.74,0-4.12-.29-3.39.24-6.9,0-10.3-.28-3.96.54-9.54,0-12.37,2.91-5.36,19.42-8.31,28.85-17.52,2.3,14.72,7.22,25.77,18.03,36.07,1.84-29.44-14.2-57.49,5.15-35.04q1.03-7.73,2.06-15.46c3.69,14.36,12.54,26.23,20.1,38.64h3.09c35.52-105.68,54.55-191.83,51.53-304.52-.94-34.94-7.75-140.72-40.71-159.73-12.17-7.02-39.86-11.37-38.64,8.24-1.19.26-1.92,2-3.09.52-2.21-2.81-15.03-60.8-18.55-69.04-.43-1-1.9-1.83-3.09-1.55-1-30.26-4.39-77.04-12.37-105.63-1.85-6.62-6.91-13.68-7.21-14.43-.5-1.25,1.35-1.85,1.03-2.58-.13-.29.13-.74,0-1.03,11.36,14.15,2.3-9.88-5.15-23.19-17.65-31.52-40.86-33.21-7.21-34.01-17.09-5.89-33.74-14.86-50.5-21.13-27.35-10.23-48.32-12.6-77.8-10.31-10.08.78-65.85,9.65-59.26,23.7-6.78,2.58-13.71,4.97-20.61,7.21-6.26,2.04-6.85,2.96-7.21,3.09-.62.23-4.6-.87-12.88,3.09-14.38,6.88-24.3,18.06-29.37,32.98-.92,2.71-3.87,8.82-4.12,10.82-3.5,27.85,15.65,61.78,11.34,29.37-1.54-4.39,5.02-2.62,14.43-4.12,19.6,4.82,42.41.28,61.83,5.15,9.81,2.46,15.59,7.26,19.58,8.24,31.98,27.31,7.22,77.31,2.06,111.3q-1.29-.52-2.58-1.03c-8.17,21.67-15.94,43.58-22.16,65.95-3.76-25.4-15.15-34.06-39.68-21.64-37.5,18.99-34.61,125.01-33.49,160.76,2.24,71.26,12.71,136.81,44.31,201.47,5.62-31.57,1.85-13.2,9.27,6.18,3.88,10.14,13.67,23.75,18.55,34.01,2.1-6.8.73-14.17,1.03-21.13,4.45.76,4.64,17.75,7.21,26.28,9.22,30.54,16.42,23.68,26.28,31.43,2.78,2.18,14.06,16.79,14.94,19.58.76,2.42,1.45,10.9,1.03,13.4-1.49,8.82-14.94,11.07-2.06,19.06.54,34.14-4.64,29.58-30.4,40.71-2.2.95-8.71,7.07-9.27,7.21-3.04.78-10.33-.78-13.4,0-34.19,8.64-29,36.94-11.34,40.19,11.57,2.13,99.13-1.6,124.69,0,.59-1,4.56-4.82,4.64-5.15,2.29,1.62,4.61,1.93,7.21,1.03-1.1,1.29-1.48,3.51.52,4.12,6.15,1.9,122.51,1.33,128.82,0,21.56-4.55,15.95-48.52-26.79-39.16ZM2276.23,2370.71c-.72-.03-1.47-.07-2.22-.11-1.13-.06-2.27-.11-3.34-.13,1.07.02,2.21.08,3.34.13.75.04,1.5.08,2.22.11,1.08.05,2.11.09,2.99.1-.89,0-1.91-.05-2.99-.1ZM2285.96,2365.03c.37-.6.76-1.23,1.15-1.88-.39.65-.78,1.28-1.15,1.88ZM2283.92,2368.21c.25-.37.52-.77.8-1.2-.28.43-.55.84-.8,1.2ZM2377.17,2362.34c.03,2.98-5.06,9.93-5.15,10.82-.11,1.02,2.8,9.01,2.06,15.46-4.63,40.57-16.03,34.18-22.67,46.37-4.12,7.56-2.17,12.93-3.09,17q-9.79-4.12-19.58-8.24c-4.53-24.09-26.52-15.26-32.98-34.52-4.85-14.49,1.79-24.16,1.03-28.85-.26-1.58-6.48-8.06-6.18-10.31.07-.51,5.59-5.79,6.18-8.24.52-2.16-.63-6.61,1.03-12.88-.19-.05-.41-.02-.66.09-.37.17-.79.51-1.27.99.47-.48.9-.82,1.27-.99.25-.11.47-.15.66-.09,3.53-13.34,2.61-14.86,10.31-27.82.69-1.16,8.97-8.05,15.46-21.64,9.59,24.49,2.91-13.97,5.67-14.43q1.8,5.93,3.61,11.85c12.12,20.4,15.89,38.75,16.49,18.03,7.43,10.91,16.12,20.8,21.64,32.98.96,2.12,6.17,13.64,6.18,14.43,1.92-1.11,4.5-1.2,7.1-.85-2.61-.36-5.18-.26-7.1.85Z"/>
      <rect class="cls-16" x="316.65" y="479.47" width="797.18" height="979.79" rx="120.05" ry="120.05"/>
      <rect class="cls-10" x="1189.53" y="479.47" width="1340.47" height="979.79" rx="155.68" ry="155.68"/>
      <rect class="cls-9" x="1217.5" y="505.6" width="1284.53" height="927.54" rx="136.78" ry="136.78"/>
      <rect class="cls-12" x="316.65" y="1499.18" width="1676.68" height="979.79" rx="174.11" ry="174.11"/>
      <rect class="cls-18" x="351.64" y="1525.31" width="1606.71" height="927.54" rx="152.97" ry="152.97"/>
      <ellipse class="cls-5" cx="917.38" cy="1345.29" rx="329.83" ry="81.58"/>
      <path class="cls-1" d="M926.84,1342.95l-52.83-111.37s-153.32-12.95-294.22,60.09"/>
      <g>
        <g>
          <line class="cls-13" x1="1325.05" y1="1192.7" x2="1579.86" y2="1028.68"/>
          <path class="cls-6" d="M1330.74,1200.64c-4.53,2.91-10.56,1.61-13.48-2.92-2.91-4.53-1.61-10.56,2.92-13.48,4.53-2.91,10.56-1.61,13.48,2.92,2.91,4.53,1.61,10.56-2.92,13.48Z"/>
          <path class="cls-6" d="M1584.73,1037.15c4.53-2.91,5.84-8.95,2.92-13.48-2.91-4.53-8.95-5.84-13.48-2.92-4.53,2.91-5.84,8.95-2.92,13.48,2.91,4.53,8.95,5.84,13.48,2.92Z"/>
        </g>
        <g>
          <line class="cls-13" x1="1719.74" y1="1192.24" x2="1579.53" y2="1029.14"/>
          <path class="cls-6" d="M1726.82,1185.52c3.51,4.08,3.05,10.24-1.04,13.75-4.08,3.51-10.24,3.05-13.75-1.04-3.51-4.08-3.05-10.24,1.04-13.75,4.08-3.51,10.24-3.05,13.75,1.04Z"/>
          <path class="cls-6" d="M1587.24,1023.15c-3.51-4.08-9.67-4.55-13.75-1.04-4.08,3.51-4.55,9.67-1.04,13.75,3.51,4.08,9.67,4.55,13.75,1.04,4.08-3.51,4.55-9.67,1.04-13.75Z"/>
        </g>
        <g>
          <line class="cls-13" x1="1925.16" y1="981.56" x2="1719.51" y2="1192.19"/>
          <path class="cls-6" d="M1917.84,975.1c3.76-3.85,9.94-3.93,13.79-.17s3.93,9.94.17,13.79c-3.76,3.85-9.94,3.93-13.79.17-3.85-3.76-3.93-9.94-.17-13.79Z"/>
          <path class="cls-6" d="M1712.87,1185.03c-3.76,3.85-3.69,10.03.17,13.79s10.03,3.69,13.79-.17c3.76-3.85,3.69-10.03-.17-13.79-3.85-3.76-10.03-3.69-13.79.17Z"/>
        </g>
        <g>
          <line class="cls-13" x1="1990.44" y1="1013.39" x2="1924.2" y2="981"/>
          <path class="cls-6" d="M1994.28,1004.41c4.84,2.37,6.84,8.21,4.48,13.04-2.37,4.84-8.21,6.84-13.04,4.48-4.84-2.37-6.84-8.21-4.48-13.04,2.37-4.84,8.21-6.84,13.04-4.48Z"/>
          <path class="cls-6" d="M1928.92,972.46c-4.84-2.37-10.68-.36-13.04,4.48-2.37,4.84-.36,10.68,4.48,13.04,4.84,2.37,10.68.36,13.04-4.48,2.37-4.84.36-10.68-4.48-13.04Z"/>
        </g>
        <g>
          <line class="cls-13" x1="2394.56" y1="744.6" x2="1989.38" y2="1014.05"/>
          <path class="cls-6" d="M2388.75,736.75c4.48-2.98,10.54-1.76,13.52,2.72,2.98,4.48,1.76,10.54-2.72,13.52-4.48,2.98-10.54,1.76-13.52-2.72-2.98-4.48-1.76-10.54,2.72-13.52Z"/>
          <path class="cls-6" d="M1984.38,1005.66c-4.48,2.98-5.7,9.04-2.72,13.52,2.98,4.48,9.04,5.7,13.52,2.72,4.48-2.98,5.7-9.04,2.72-13.52-2.98-4.48-9.04-5.7-13.52-2.72Z"/>
        </g>
      </g>
      <circle class="cls-15" cx="544.82" cy="1666.69" r="42.73"/>
      <circle class="cls-15" cx="544.82" cy="1865.95" r="42.73"/>
      <circle class="cls-7" cx="544.82" cy="2065.2" r="42.73"/>
      <circle class="cls-7" cx="544.82" cy="2264.46" r="42.73"/>
    </g>
  </g>
</svg>